<?xml version="1.0" encoding="UTF-8"?>
<svg version="1.1" xmlns="http://www.w3.org/2000/svg" width="1200" height="1275">
<path d="M0 0 C0.76322539 -0.00581376 1.52645079 -0.01162753 2.31280422 -0.01761746 C4.8613277 -0.03217476 7.40888158 -0.01835273 9.95739746 -0.00457001 C11.80651592 -0.00918062 13.65563071 -0.01553461 15.50473785 -0.02347898 C20.57922316 -0.04017338 25.65340746 -0.03192535 30.72789383 -0.01953411 C36.2030974 -0.01048645 41.6782491 -0.02445195 47.15344238 -0.0354538 C57.87667808 -0.05324659 68.59980182 -0.04939561 79.32304192 -0.03780323 C88.03751418 -0.0287722 96.75195506 -0.02754349 105.46643066 -0.0318985 C106.7063988 -0.03251143 107.94636693 -0.03312436 109.22390985 -0.03375587 C111.74282774 -0.03503476 114.26174562 -0.03633161 116.78066349 -0.03764623 C139.73080539 -0.04872901 162.68089835 -0.03723289 185.63102877 -0.01627585 C206.57774167 0.00270632 227.52435729 0.0010078 248.47106934 -0.01811981 C272.00981468 -0.03954255 295.5485172 -0.0479556 319.08727264 -0.03567076 C321.59695942 -0.03439655 324.10664621 -0.03313907 326.61633301 -0.0318985 C327.85116881 -0.0312814 329.08600461 -0.03066429 330.35825968 -0.03002849 C339.06294974 -0.02657381 347.76760532 -0.0324065 356.47229004 -0.04181671 C367.07941831 -0.05303143 377.68642817 -0.05000765 388.29354286 -0.02869374 C393.70616804 -0.01817632 399.11859573 -0.01407342 404.53121948 -0.02729034 C409.48565621 -0.03920553 414.43971231 -0.03266589 419.39411449 -0.01138014 C421.18673419 -0.0069104 422.979386 -0.00918866 424.77198505 -0.01888329 C427.20936791 -0.03105426 429.64544857 -0.01856591 432.08276367 0 C433.12592947 -0.014047 433.12592947 -0.014047 434.19016933 -0.02837777 C440.29565951 0.06452738 445.66955811 2.11722399 449.98278809 6.45648956 C451.18905801 8.78890815 451.67567158 10.64492568 451.97888184 13.25336456 C452.09103027 14.05258331 452.20317871 14.85180206 452.31872559 15.67523956 C451.45405032 24.49249157 444.20586964 32.47135895 439.35388184 39.62836456 C438.18800785 41.35551275 437.02358109 43.08361696 435.86051941 44.81266022 C434.79357871 46.39765757 433.72292026 47.98015056 432.65197754 49.56244659 C430.17822189 53.25983963 427.78104712 57.00600936 425.3782196 60.74967194 C424.7520003 61.72460303 424.7520003 61.72460303 424.11313009 62.7192297 C423.0889652 64.31378154 422.06513959 65.90855129 421.04138184 67.50336456 C422.84839365 67.5055644 422.84839365 67.5055644 424.69191074 67.50780869 C453.29358786 67.54351683 481.89517578 67.5997669 510.49675805 67.68128552 C514.01773574 67.69130288 517.5387139 67.70114702 521.05969238 67.71088409 C521.76065068 67.71282547 522.46160898 67.71476684 523.18380844 67.71676704 C534.53106195 67.74778138 545.87829524 67.76476611 557.22558314 67.77655879 C568.87045411 67.7889733 580.51521299 67.81677855 592.16001791 67.85797763 C598.70012469 67.88062881 605.24008007 67.89627304 611.78022957 67.89524841 C617.93538995 67.89450398 624.09021516 67.91236816 630.24528885 67.94453239 C632.50475092 67.95305441 634.76425049 67.95476578 637.02372169 67.94916725 C640.1089044 67.94254076 643.19301652 67.96041665 646.27809143 67.98438263 C647.17207439 67.97662221 648.06605735 67.96886179 648.9871307 67.96086621 C654.82194497 68.04109651 658.25582661 69.10911416 663.04138184 72.50336456 C666.49152998 77.28905392 666.53511267 81.82036046 666.04138184 87.50336456 C665.38356773 90.19844652 664.38712924 92.66756764 663.28747559 95.21039581 C662.84883682 96.27736191 662.84883682 96.27736191 662.40133667 97.36588287 C661.4420225 99.68902918 660.46073197 102.00216405 659.47888184 104.31586456 C658.80192051 105.94328393 658.12640642 107.57130598 657.45227051 109.19989777 C655.68893343 113.44975881 653.90720787 117.69166271 652.12158203 121.93219757 C650.35115984 126.14627855 648.59885932 130.36786381 646.84606934 134.58930206 C644.89135963 139.29493979 642.93541634 144.00000792 640.96691895 148.69989777 C640.66613434 149.41831848 640.36534973 150.1367392 640.05545044 150.87693024 C639.50379691 152.19376997 638.95152327 153.51035024 638.39840698 154.82657623 C636.87951865 158.452797 635.39980018 162.09298677 633.94181824 165.74416351 C633.58494273 166.63752316 633.22806723 167.53088282 632.86037731 168.45131397 C632.5901088 169.12849067 632.3198403 169.80566736 632.04138184 170.50336456 C632.80983272 170.49967739 633.5782836 170.49599022 634.37002087 170.49219131 C653.06498482 170.40386793 671.75990716 170.33766843 690.45503521 170.29611588 C699.49585651 170.27548743 708.53653857 170.24736149 717.57727051 170.20160675 C725.45684664 170.16174757 733.33632194 170.1359338 741.21599609 170.12701058 C745.38857207 170.12179425 749.56085957 170.10952832 753.73334312 170.08044434 C757.66087849 170.0532896 761.58800659 170.04491958 765.51562691 170.05093384 C766.95678801 170.04983361 768.39796276 170.04187971 769.83904266 170.02654266 C771.80777118 170.00661816 773.77671832 170.01381549 775.74552917 170.0223465 C777.3978431 170.01681574 777.3978431 170.01681574 779.0835371 170.01117325 C782.73947678 170.61952897 784.40202601 171.95414417 787.04138184 174.50336456 C788.42785928 177.27631945 788.17373829 179.52835548 788.18182373 182.63259125 C788.19038895 184.59478859 788.19038895 184.59478859 788.1991272 186.59662628 C788.20037262 188.05487814 788.2014977 189.51313011 788.20251465 190.97138214 C788.20714176 192.50049205 788.21216628 194.0296008 788.21755981 195.55870819 C788.23069674 199.71994935 788.23713137 203.88117436 788.24157047 208.04243302 C788.24449932 210.64123074 788.24860379 213.24002402 788.25307465 215.8388195 C788.26675344 223.96693013 788.27641803 232.09503064 788.28027654 240.22315198 C788.28475736 249.61115949 788.30230472 258.99902141 788.33127713 268.38698465 C788.35288413 275.63970006 788.3629803 282.89237449 788.36431766 290.14512175 C788.36536646 294.47856499 788.37129011 298.81187144 788.38913727 303.14528084 C788.40560086 307.2221893 788.40778187 311.29885791 788.39899826 315.37578773 C788.39822694 316.87176149 788.4025831 318.36774805 788.41245651 319.86368942 C788.42514995 321.90681618 788.41751699 323.95003904 788.40887451 325.99318695 C788.41107435 327.70797351 788.41107435 327.70797351 788.41331863 329.45740223 C787.98997356 332.92437073 787.1799688 334.7566695 785.04138184 337.50336456 C781.67543605 339.69665796 778.86790144 339.75054726 774.90374756 339.7438736 C773.01493614 339.74799759 773.01493614 339.74799759 771.08796692 339.7522049 C769.69515896 339.74512707 768.30235196 339.73785746 766.9095459 339.73041534 C765.44099434 339.72985112 763.97244222 339.73016801 762.50389099 339.73130035 C758.51866836 339.73187443 754.53356599 339.72011124 750.54837132 339.70615244 C746.38302278 339.69365425 742.21767152 339.6924753 738.05230713 339.69010162 C730.16527782 339.68388418 722.27830392 339.66746977 714.39129901 339.64740264 C705.41194111 339.62505189 696.43258056 339.61405229 687.45320177 339.60401177 C668.9825637 339.58310378 650.51197722 339.54792265 632.04138184 339.50336456 C632.042521 340.70219757 632.04366016 341.90103057 632.04483384 343.13619184 C632.09483464 395.96369516 632.14111881 448.79120056 632.16841125 501.61872101 C632.16882543 502.41834748 632.1692396 503.21797394 632.16966632 504.04183152 C632.17864478 521.41934453 632.18695536 538.79685779 632.19457782 556.17437145 C632.19831988 564.69614525 632.20220953 573.21791899 632.20617676 581.73969269 C632.20656903 582.58771727 632.20696131 583.43574184 632.20736548 584.30946413 C632.22015237 611.80258355 632.24268844 639.29568448 632.2702735 666.78879269 C632.29856632 695.03857712 632.31703702 723.28835131 632.32312681 751.53814966 C632.32399129 755.52708871 632.3249682 759.51602773 632.32601357 763.50496674 C632.32621583 764.29005682 632.3264181 765.07514691 632.3266265 765.88402761 C632.33017338 778.52819308 632.34409222 791.17232694 632.36187794 803.81647951 C632.37953224 816.52425784 632.38628763 829.23200479 632.38188597 841.93979496 C632.37980333 848.82672614 632.38256835 855.71357254 632.39899826 862.60048676 C632.41356253 868.90226168 632.41435668 875.20388099 632.40407852 881.50566298 C632.40280759 883.78843129 632.40664239 886.07120919 632.41603138 888.35395855 C632.42803636 891.4522688 632.42160214 894.55001417 632.41052532 897.64831543 C632.41840636 898.53856753 632.4262874 899.42881963 632.43440726 900.34604907 C632.38298419 906.69326792 631.49771983 912.45581317 627.38293457 917.56098175 C621.8610685 922.01704512 616.08275445 925.93569027 610.10388184 929.75336456 C608.39209837 930.85967003 606.68035258 931.96603465 604.96951294 933.07379913 C603.71912082 933.88332019 602.46827263 934.69213716 601.2170105 935.50031281 C593.41528995 940.54312463 585.66398105 945.66244716 577.90917969 950.77698517 C573.48422053 953.69514721 569.05759438 956.61077885 564.63122559 959.52680206 C563.74581085 960.11019348 562.86039612 960.6935849 561.94815063 961.29465485 C552.91947414 967.24340024 543.88702707 973.18640793 534.85388184 979.12836456 C533.28324282 980.16156618 531.7126048 981.19476931 530.14196777 982.22797394 C527.00901681 984.28888328 523.87603666 986.34974824 520.74304199 988.41059113 C513.63490313 993.08628352 506.52717079 997.76259384 499.41940308 1002.4388504 C495.46007887 1005.04371309 491.50072907 1007.64853688 487.54138184 1010.25336456 C485.95804838 1011.29503104 484.37471505 1012.33669771 482.79138184 1013.37836456 C441.62471517 1040.4616979 400.4580485 1067.54503123 359.29138184 1094.62836456 C358.50760162 1095.1440097 357.72382141 1095.65965485 356.91629028 1096.1909256 C355.33326311 1097.23239031 353.75023495 1098.27385353 352.16720581 1099.31531525 C348.20418017 1101.92255957 344.24117172 1104.52983002 340.27819824 1107.13715363 C333.20930857 1111.78788916 326.14031435 1116.4384652 319.07064819 1121.08802032 C315.18580661 1123.64300413 311.30108972 1126.19817749 307.41638184 1128.75336456 C306.64828186 1129.25855621 305.88018188 1129.76374786 305.08880615 1130.28424835 C295.57955527 1136.53894178 286.07398927 1142.79918621 276.57263184 1149.06586456 C275.60105133 1149.70658905 274.62947083 1150.34731354 273.62844849 1151.00745392 C268.92228007 1154.111051 264.21652408 1157.21526928 259.51159668 1160.32074738 C250.64393222 1166.1712873 241.76437156 1172.00308673 232.86169434 1177.80023956 C232.00502167 1178.35890717 231.148349 1178.91757477 230.26571655 1179.49317169 C229.4777066 1180.00539276 228.68969666 1180.51761383 227.87780762 1181.04535675 C227.1832547 1181.49723358 226.48870178 1181.94911041 225.77310181 1182.41468048 C222.65627842 1184.37414048 220.59663981 1184.71847612 216.91638184 1184.81586456 C215.55126465 1184.87193878 215.55126465 1184.87193878 214.15856934 1184.92914581 C205.77827424 1183.78446891 198.64289153 1177.72326903 191.7935791 1173.08628082 C188.47430728 1170.83992293 185.14369507 1168.61045413 181.81481934 1166.37836456 C181.10722473 1165.90332993 180.39963013 1165.42829529 179.67059326 1164.93886566 C171.32951047 1159.34423839 162.93602494 1153.82965151 154.54138184 1148.31586456 C152.92921835 1147.25640843 151.31707658 1146.19691927 149.70495605 1145.13739777 C146.44364249 1142.99420626 143.18204264 1140.85145124 139.92028809 1138.70893097 C132.74714536 1133.99668008 125.57785496 1129.27857436 118.4083252 1124.56082916 C114.4528402 1121.95809352 110.49709782 1119.35574912 106.54138184 1116.75336456 C104.95804727 1115.71169976 103.37471394 1114.6700331 101.79138184 1113.62836456 C100.61575684 1112.85492706 100.61575684 1112.85492706 99.41638184 1112.06586456 C16.29138292 1057.37836528 16.29138292 1057.37836528 13.91633606 1055.81583405 C12.33315581 1054.77426836 10.74997506 1053.73270342 9.16679382 1052.69113922 C5.20611434 1050.08543372 1.24544342 1047.4797152 -2.71520996 1044.87397003 C-9.81220055 1040.20482177 -16.90924795 1035.53576001 -24.00662231 1030.86719513 C-42.02371638 1019.01576149 -60.03782995 1007.159821 -78.04803467 995.29792023 C-89.62700597 987.67185777 -101.20745771 980.04805318 -112.79043579 972.4280777 C-115.13486509 970.88576753 -117.47923876 969.34337283 -119.8236084 967.80097198 C-128.7365174 961.93727886 -137.65100126 956.07598886 -146.56692505 950.2168808 C-152.94708796 946.02352647 -159.3228228 941.82348071 -165.69723511 937.6213913 C-170.06599334 934.74342109 -174.44548891 931.88295714 -178.83361816 929.03461456 C-180.72948707 927.79508563 -182.62532398 926.55550778 -184.52111816 925.31586456 C-185.3352417 924.79419708 -186.14936523 924.2725296 -186.98815918 923.73505402 C-192.0292291 920.4213708 -196.20051632 917.01956826 -198.95861816 911.50336456 C-199.05589531 908.4361386 -199.09049772 905.39162512 -199.08166599 902.32413292 C-199.08281984 901.35607548 -199.08397368 900.38801805 -199.08516249 899.39062554 C-199.08783347 896.10957473 -199.08330303 892.82857187 -199.07887268 889.5475235 C-199.07930828 887.18641146 -199.08018299 884.82529947 -199.08146185 882.46418774 C-199.08323846 877.31152712 -199.08188438 872.15887688 -199.07782364 867.00621796 C-199.07180214 859.34433697 -199.07148657 851.6824633 -199.07236563 844.02058038 C-199.07368128 831.13366358 -199.07033149 818.24675189 -199.06434822 805.35983658 C-199.05843681 792.59505818 -199.05458341 779.83028192 -199.05349541 767.06550217 C-199.05342667 766.27264929 -199.05335793 765.47979641 -199.05328711 764.66291769 C-199.05294878 760.63662991 -199.0526474 756.61034214 -199.05236023 752.58405437 C-199.05025827 724.0452748 -199.04351659 695.50649803 -199.03405762 666.96772003 C-199.02487736 639.23790247 -199.0177917 611.50808568 -199.0135498 583.77826691 C-199.01341828 582.92392998 -199.01328675 582.06959305 -199.01315124 581.18936712 C-199.01183275 572.60998161 -199.01055693 564.03059609 -199.00931238 555.45121057 C-199.00677598 537.97308128 -199.00395473 520.49495204 -199.0009613 503.01682281 C-199.00075537 501.81132519 -199.00075537 501.81132519 -199.00054527 500.58147408 C-198.9913403 446.88876973 -198.97547384 393.19606698 -198.95861816 339.50336456 C-199.71676158 339.50612994 -200.47490499 339.50889532 -201.25602245 339.5117445 C-219.70064792 339.57798847 -238.14524965 339.62763742 -256.58996868 339.65880108 C-265.50968891 339.67427204 -274.42932975 339.69536593 -283.34899902 339.72968292 C-291.12309933 339.75957827 -298.89714214 339.7789379 -306.67129833 339.78563005 C-310.78792838 339.78954208 -314.90439394 339.79874062 -319.0209713 339.82055473 C-322.89593083 339.84092206 -326.77065815 339.8471979 -330.64566612 339.84268761 C-332.06746686 339.8435127 -333.48927538 339.84947703 -334.91102982 339.86098099 C-336.85352707 339.87592706 -338.79614902 339.87052585 -340.73869324 339.86412811 C-341.82548717 339.86689349 -342.91228109 339.86965887 -344.03200817 339.87250805 C-347.37487994 339.45086002 -349.24787737 338.46854567 -351.95861816 336.50336456 C-354.33979637 333.21512067 -354.21435364 330.11048924 -354.2260437 326.13362885 C-354.23457367 324.82274796 -354.24310364 323.51186707 -354.25189209 322.16126251 C-354.25119308 320.71027362 -354.25027003 319.25928483 -354.24914551 317.8082962 C-354.2551304 316.27888918 -354.26193585 314.74948517 -354.26950073 313.22008514 C-354.28717044 309.06721002 -354.29185647 304.91441731 -354.29313231 300.76150823 C-354.29503164 297.29473704 -354.30238945 293.82798505 -354.30947649 290.36122125 C-354.32576118 282.18276238 -354.33064532 274.00434755 -354.32922363 265.82587433 C-354.32802165 257.38815856 -354.3491345 248.95069836 -354.38071096 240.51304728 C-354.40685571 233.26877484 -354.41759171 226.02458597 -354.41631281 218.7802667 C-354.41580272 214.45352567 -354.42151232 210.12701182 -354.44266891 205.80031776 C-354.46202151 201.73152038 -354.46219649 197.66316762 -354.44763565 193.59435463 C-354.44554283 192.10160422 -354.45027664 190.6088262 -354.46235657 189.1161232 C-354.47778526 187.07749949 -354.46611275 185.03872445 -354.45309448 183.00008392 C-354.45418402 181.85949052 -354.45527355 180.71889711 -354.4563961 179.54374027 C-353.84898842 175.83375752 -352.55195996 174.17393317 -349.95861816 171.50336456 C-347.24727298 170.14769197 -345.13615363 170.38054093 -342.09945679 170.38311005 C-340.22739059 170.38104805 -340.22739059 170.38104805 -338.31750488 170.3789444 C-336.92687965 170.38248377 -335.53625465 170.38611859 -334.14562988 170.38983917 C-332.68722536 170.39012112 -331.2288207 170.38996316 -329.77041626 170.38939667 C-325.80370669 170.38910899 -321.83702718 170.39500092 -317.87032461 170.40197062 C-313.72764836 170.40820911 -309.58497148 170.40880835 -305.44229126 170.40999603 C-297.59417284 170.41310788 -289.74606831 170.42131931 -281.89795601 170.43134552 C-272.96458695 170.44251118 -264.03121723 170.44801825 -255.09784293 170.45304096 C-236.71809346 170.46350204 -218.33835693 170.48109867 -199.95861816 170.50336456 C-211.42689302 142.10810834 -211.42689302 142.10810834 -223.14611816 113.81586456 C-224.92329849 109.57508969 -226.6988237 105.33365 -228.46569824 101.08856964 C-229.38957675 98.86990146 -230.31816334 96.65317944 -231.25427246 94.43964386 C-231.80015015 93.12540436 -231.80015015 93.12540436 -232.35705566 91.78461456 C-232.66175781 91.05951691 -232.96645996 90.33441925 -233.28039551 89.58734894 C-234.84113376 84.79164637 -234.72090885 80.30878986 -232.77111816 75.69086456 C-230.24411312 72.64103088 -227.5094325 70.27877173 -223.95861816 68.50336456 C-220.89745147 68.39497385 -217.85842534 68.34844242 -214.79660034 68.34514618 C-213.83525669 68.3402082 -212.87391303 68.33527022 -211.88343775 68.33018261 C-208.6420609 68.31474832 -205.40070395 68.30643098 -202.15930176 68.2980423 C-199.84376346 68.28846843 -197.52822693 68.27845865 -195.21269226 68.26804352 C-188.90930397 68.24093512 -182.60590814 68.21995776 -176.30249357 68.20004153 C-169.72143387 68.17821849 -163.14039755 68.15081184 -156.55935669 68.12398529 C-145.50788452 68.079528 -134.45640274 68.0388664 -123.40490723 68.00067902 C-112.0204576 67.96133169 -100.63601867 67.91990731 -89.25158691 67.87567902 C-88.5501684 67.87295474 -87.84874989 67.87023047 -87.12607627 67.86742365 C-83.60736066 67.85374429 -80.08864521 67.840024 -76.56992984 67.82628334 C-47.36618185 67.71229507 -18.16240974 67.60556448 11.04138184 67.50336456 C8.64053838 63.8143911 6.23829831 60.1263291 3.83581543 56.43842316 C3.15985825 55.39975601 2.48390106 54.36108887 1.78746033 53.29094696 C-1.65381717 48.00992115 -5.11518837 42.74803285 -8.66955566 37.54242706 C-9.60541504 36.15797394 -9.60541504 36.15797394 -10.56018066 34.74555206 C-11.78510447 32.93784512 -13.02294483 31.13884726 -14.27111816 29.34711456 C-17.98203724 23.80442267 -20.29995108 19.2882271 -19.95861816 12.50336456 C-19.46252441 10.01508331 -19.46252441 10.01508331 -18.52111816 8.19086456 C-18.23365723 7.57598175 -17.94619629 6.96109894 -17.65002441 6.32758331 C-12.96741796 1.27728952 -6.67339742 -0.08986222 0 0 Z M18.04138184 27.50336456 C20.35138184 31.13336456 22.66138184 34.76336456 25.04138184 38.50336456 C26.99880466 41.64220926 28.95208163 44.78330353 30.89465332 47.93134308 C33.36077952 51.90027213 35.90399644 55.79937723 38.53747559 59.65961456 C39.42475342 60.97554596 39.42475342 60.97554596 40.32995605 62.31806183 C41.48526347 64.02621866 42.65425744 65.72522337 43.83874512 67.41327667 C47.38620864 72.68936343 49.30752812 77.06165377 49.04138184 83.50336456 C48.47497559 86.02680206 48.47497559 86.02680206 47.47888184 87.87836456 C47.01288574 88.81809113 47.01288574 88.81809113 46.53747559 89.77680206 C43.95808361 92.75354162 40.83006152 94.26807901 36.91223836 94.78343523 C34.3401479 94.89766389 31.78315554 94.915712 29.20852661 94.90209198 C27.73075794 94.91206222 27.73075794 94.91206222 26.22313535 94.92223388 C22.92497811 94.94087286 19.62718337 94.93825793 16.32897949 94.93573761 C13.96358731 94.94475419 11.59819982 94.95508115 9.2328186 94.9666214 C2.81187878 94.99422951 -3.60897247 95.00348115 -10.02996397 95.00947547 C-16.06061864 95.01647871 -22.09122264 95.04002695 -28.12183674 95.06209395 C-40.06464624 95.10534858 -52.00745054 95.13532288 -63.95031738 95.15692902 C-75.54995277 95.17794268 -87.1495456 95.20522115 -98.74914551 95.24091339 C-99.8220994 95.24421163 -99.8220994 95.24421163 -100.91672914 95.2475765 C-104.50528276 95.25864625 -108.09383598 95.26983904 -111.68238902 95.281093 C-141.44109421 95.37425935 -171.19982214 95.44564446 -200.95861816 95.50336456 C-199.3796886 99.46292191 -197.79905527 103.42179707 -196.21813965 107.38056183 C-195.77597862 108.48945015 -195.3338176 109.59833847 -194.87825775 110.74082947 C-192.24181867 117.34000093 -189.56359607 123.91861704 -186.80627441 130.46820831 C-186.30415892 131.66123613 -186.30415892 131.66123613 -185.79189968 132.87836552 C-184.5465401 135.83434475 -183.29793469 138.78891702 -182.04431152 141.74140167 C-178.02476954 151.21997723 -174.46042533 160.49613589 -171.95861816 170.50336456 C-47.54861816 170.50336456 76.86138184 170.50336456 205.04138184 170.50336456 C205.04138184 123.31336456 205.04138184 76.12336456 205.04138184 27.50336456 C143.33138184 27.50336456 81.62138184 27.50336456 18.04138184 27.50336456 Z M227.04138184 27.50336456 C227.04138184 74.69336456 227.04138184 121.88336456 227.04138184 170.50336456 C351.78138184 170.50336456 476.52138184 170.50336456 605.04138184 170.50336456 C605.70138184 166.87336456 606.36138184 163.24336456 607.04138184 159.50336456 C608.32540121 155.92364865 609.65107925 152.48389325 611.14685059 148.99945831 C611.54914383 148.03669479 611.95143707 147.07393127 612.36592102 146.0819931 C613.64326101 143.03049351 614.935373 139.98554062 616.22888184 136.94086456 C617.50144141 133.91996534 618.77078098 130.89774173 620.0382843 127.87471771 C620.82283866 126.00628797 621.61063424 124.13921343 622.40275574 122.27397919 C624.94136219 116.26354419 627.34105633 110.20596942 629.69807434 104.12264252 C630.02063029 103.29161026 630.34318624 102.46057801 630.67551661 101.60436296 C631.46468851 99.57091026 632.25311151 97.53716693 633.04138184 95.50336456 C631.81609237 95.50097621 630.5908029 95.49858786 629.32838345 95.49612713 C600.23796109 95.43875872 571.14760967 95.36602208 542.05727654 95.27437828 C538.47621368 95.26311021 534.89515043 95.25197174 531.31408691 95.24091339 C530.60116616 95.23870971 529.8882454 95.23650602 529.15372098 95.23423556 C517.61247829 95.19886987 506.07123567 95.17400163 494.5299589 95.15301754 C482.68622177 95.13124968 470.84255493 95.09818992 458.99887758 95.054663 C452.34701962 95.0305402 445.69522016 95.01199351 439.04331779 95.00575066 C432.78314779 94.99971096 426.52317694 94.97975111 420.2630806 94.94908905 C417.96491566 94.940291 415.66672472 94.93658989 413.36854362 94.9383564 C410.23097422 94.94000673 407.09401365 94.92332965 403.95652771 94.90209198 C402.59220758 94.90936334 402.59220758 94.90936334 401.20032543 94.9167816 C395.73063331 94.85567556 391.89241865 94.08391001 387.04138184 91.50336456 C383.92407341 88.05751627 383.08199664 84.3156607 382.85388184 79.75336456 C384.94137913 69.0521942 394.08891173 58.77378918 400.16638184 49.81586456 C401.735756 47.50230744 403.3000903 45.18545269 404.86169434 42.86664581 C405.54505859 41.85900177 406.22842285 40.85135773 406.93249512 39.81317902 C409.47866936 35.81705905 411.74023477 31.64542929 414.04138184 27.50336456 C352.33138184 27.50336456 290.62138184 27.50336456 227.04138184 27.50336456 Z M-171.95861816 339.50336456 C-172.573291 392.64769666 -173.14843144 445.79223846 -173.48297119 498.93915558 C-173.48794125 499.72670497 -173.4929113 500.51425436 -173.49803196 501.32566889 C-173.60579601 518.44441844 -173.70551976 535.56320601 -173.79697002 552.68205029 C-173.84187111 561.0780632 -173.88854747 569.47406582 -173.93615723 577.87006378 C-173.94086455 578.70553232 -173.94557188 579.54100085 -173.95042185 580.40178661 C-174.10362407 607.445003 -174.37386455 634.4854978 -174.70531811 661.52706772 C-175.04553069 689.33398345 -175.26663772 717.13939548 -175.33955781 744.94835712 C-175.3499302 748.88297686 -175.36165309 752.81759151 -175.37419891 756.7522049 C-175.37662614 757.52653416 -175.37905337 758.30086343 -175.38155415 759.09865722 C-175.42397387 771.52611749 -175.59058002 783.94890547 -175.80457139 796.37446556 C-176.01744158 808.89078817 -176.09724943 821.40251794 -176.04466775 833.92058438 C-176.01980909 840.69756599 -176.05593501 847.46015126 -176.25001526 854.23482704 C-178.16340173 881.13418988 -178.16340173 881.13418988 -168.3983984 905.00396538 C-160.24815799 912.83984266 -150.34540925 917.97136586 -140.1169734 922.5658226 C-134.83673104 924.95107543 -130.17268181 928.08058004 -125.46643066 931.43695831 C-124.05356319 932.3737035 -122.63744992 933.3055947 -121.21643066 934.22992706 C-120.20757812 934.89169952 -120.20757812 934.89169952 -119.17834473 935.56684113 C-118.48708496 936.02026886 -117.7958252 936.47369659 -117.08361816 936.94086456 C-115.51582483 937.97068309 -113.94811968 939.00063588 -112.38049316 940.03070831 C-109.1676065 942.14172481 -105.95436587 944.25220076 -102.74084473 946.36225128 C-95.60137777 951.05081568 -88.46667235 955.74661746 -81.331604 960.44187164 C-77.37413691 963.04599879 -73.41636198 965.649658 -69.45861816 968.25336456 C-67.87528336 969.29502899 -66.29195002 970.33669565 -64.70861816 971.37836456 C-63.53299316 972.15180206 -63.53299316 972.15180206 -62.33361816 972.94086456 C96.79138227 1077.62836485 96.79138227 1077.62836485 99.16642761 1079.19089508 C100.74960787 1080.23246077 102.33278861 1081.27402571 103.91596985 1082.3155899 C107.87664933 1084.9212954 111.83732025 1087.52701392 115.79797363 1090.13275909 C122.89480158 1094.80180035 129.99168703 1099.47075408 137.08889771 1104.13921356 C153.99229713 1115.25806648 170.89415056 1126.37926419 187.79244995 1137.505867 C189.60884025 1138.70184498 191.42526619 1139.89776883 193.24172974 1141.09363556 C195.76881391 1142.75737833 198.29574549 1144.4213526 200.82263184 1146.08539581 C201.56776535 1146.57591934 202.31289886 1147.06644287 203.08061218 1147.57183075 C203.7798732 1148.03239365 204.47913422 1148.49295654 205.19958496 1148.96747589 C205.85773193 1149.3945282 206.51587891 1149.82158051 207.19396973 1150.26157379 C208.39264499 1151.06729758 209.56665146 1151.91149167 210.70715332 1152.79764557 C212.38391965 1154.13461223 212.38391965 1154.13461223 215.04138184 1155.50336456 C219.45527951 1154.64152608 223.14006858 1151.63287262 226.84997559 1149.15570831 C227.51572601 1148.71647537 228.18147644 1148.27724243 228.86740112 1147.8246994 C231.07399428 1146.367558 233.27637222 1144.90416948 235.47888184 1143.44086456 C237.04522243 1142.40507692 238.61187909 1141.3697671 240.17883301 1140.33490753 C243.47188531 1138.15946281 246.76347867 1135.98183544 250.05407715 1133.80268097 C257.19132777 1129.07824949 264.34489763 1124.37865827 271.49746704 1119.67746735 C275.47778768 1117.06081182 279.45679977 1114.44216802 283.43591309 1111.82367706 C285.03828362 1110.76930633 286.64065992 1109.71494434 288.24304199 1108.66059113 C289.43199066 1107.87827118 289.43199066 1107.87827118 290.6449585 1107.08014679 C296.98624451 1102.90775082 303.32785027 1098.73584086 309.66940308 1094.5638504 C313.62674558 1091.96037982 317.5840624 1089.35687021 321.54138184 1086.75336456 C323.12471505 1085.71169771 324.70804838 1084.67003104 326.29138184 1083.62836456 C327.07513184 1083.11273956 327.85888184 1082.59711456 328.66638184 1082.06586456 C487.79138142 977.37836484 487.79138142 977.37836484 490.16633606 975.81589508 C491.74982247 974.77412744 493.33330839 973.73235904 494.91679382 972.6905899 C498.87278101 970.08796207 502.82877671 967.48534719 506.78479004 964.88275909 C514.73899966 959.64981128 522.69306487 954.41664417 530.64685059 949.18305206 C537.75510299 944.50583038 544.86377504 939.82924713 551.9728241 935.15323639 C556.7769489 931.99322184 561.58050261 928.8323412 566.38371277 925.67093658 C569.57155578 923.57299176 572.75985956 921.47574796 575.94827271 919.37866974 C577.44225872 918.3958468 578.93606043 917.41274362 580.42965698 916.42932892 C582.5015479 915.06521431 584.57412517 913.70214824 586.64685059 912.33930206 C587.23490479 911.95177765 587.82295898 911.56425323 588.42883301 911.16498566 C589.00762207 910.78471222 589.58641113 910.40443878 590.18273926 910.01264191 C590.73888324 909.62172696 591.29502722 909.23081201 591.86802405 908.82805115 C594.04138184 907.50336456 594.04138184 907.50336456 596.77794772 906.50541013 C600.40526417 904.92241423 602.46148324 903.53560657 605.04138184 900.50336456 C607.25708292 893.49917041 606.47471058 885.611579 606.36418152 878.36385345 C606.36897764 876.0437846 606.37860775 873.72372152 606.39266235 871.40369028 C606.41729567 865.0224617 606.37321411 858.64325839 606.31810367 852.26228797 C606.2701421 846.08997867 606.28466602 839.91765282 606.29260394 833.74521401 C606.30705339 821.11931722 606.270316 808.49405388 606.20441246 795.86834145 C606.13932659 783.3672351 606.09698754 770.86639258 606.08503151 758.36511803 C606.08427537 757.58785866 606.08351924 756.81059929 606.08274019 756.00978661 C606.07901853 752.06248437 606.0757033 748.11518189 606.07254455 744.16787916 C606.04943947 716.20848311 605.97532745 688.2494317 605.87121582 660.2902298 C605.77018912 633.12813907 605.69226854 605.96614264 605.64562988 578.80390167 C605.64418309 577.96665699 605.64273631 577.12941231 605.64124568 576.26679657 C605.62674197 567.85884725 605.61270801 559.4508972 605.59901823 551.04294651 C605.57111982 533.91495562 605.54008605 516.78697088 605.50715637 499.65898895 C605.50564618 498.8714707 605.50413599 498.08395244 605.50258004 497.27256999 C605.4013713 444.68268808 605.22622864 392.09301044 605.04138184 339.50336456 C593.82138184 339.50336456 582.60138184 339.50336456 571.04138184 339.50336456 C571.03779931 343.623208 571.03779931 343.623208 571.0341444 347.82628059 C570.99201829 395.87721081 570.94608442 443.92813518 570.88240051 491.97904205 C570.88140495 492.73101356 570.88040938 493.48298506 570.87938365 494.25774358 C570.85772619 510.59926497 570.83540358 526.94078538 570.81239555 543.28230492 C570.80111683 551.2959327 570.78998511 559.30956069 570.77893066 567.32318878 C570.7778281 568.12065023 570.77672553 568.91811167 570.77558956 569.73973861 C570.73990734 595.59776134 570.71393725 621.45578277 570.69299215 647.31382129 C570.67142099 673.88155021 570.64007465 700.44925003 570.59639071 727.01695223 C570.59022827 730.76760448 570.58417782 734.51825691 570.57819557 738.26890945 C570.57701469 739.00710727 570.57583381 739.74530509 570.57461714 740.50587254 C570.55587998 752.39911333 570.54747804 764.29234015 570.54292059 776.18559389 C570.53812139 788.13609822 570.52248258 800.08654914 570.49571618 812.03702481 C570.48166569 818.51459463 570.4725436 824.99207569 570.47637367 831.46966171 C570.47977116 837.39510609 570.46949273 843.32036053 570.44814632 849.24576597 C570.44285586 851.39390045 570.44266698 853.54205455 570.44798621 855.69018896 C570.45446455 858.60215534 570.44264885 861.51348823 570.42614269 864.42540169 C570.43555774 865.68683926 570.43555774 865.68683926 570.44516298 866.97376043 C570.38655061 872.55824847 569.52612443 876.99426542 565.42248535 881.13813019 C564.82363525 881.55772003 564.22478516 881.97730988 563.60778809 882.40961456 C562.90025391 882.90590363 562.19271973 883.40219269 561.46374512 883.91352081 C556.6950565 887.04330314 551.85336516 890.04157981 546.97888184 893.00336456 C545.82242243 893.71005325 544.66617615 894.4170908 543.51013184 895.12445831 C540.02373143 897.25601177 536.53283419 899.38009594 533.04138184 901.50336456 C531.07391754 902.70125433 529.10646867 903.89916943 527.13903809 905.09711456 C524.33613513 906.80312368 521.53287468 908.50853339 518.7286377 910.21234894 C510.38003977 915.28731015 502.06094029 920.40957437 493.74377441 925.53583527 C486.58642976 929.94458038 479.41379047 934.32720402 472.22888184 938.69086456 C464.97848772 943.09466072 457.7487083 947.52943122 450.54138184 952.00336456 C442.38135837 957.06868264 434.1878199 962.07636685 425.97888184 967.06195831 C418.65008373 971.51614083 411.34219755 976.00348392 404.04138184 980.50336456 C395.78600495 985.59159197 387.51746123 990.65690398 379.22888184 995.69086456 C371.97848772 1000.09466072 364.7487083 1004.52943122 357.54138184 1009.00336456 C349.38135837 1014.06868264 341.1878199 1019.07636685 332.97888184 1024.06195831 C325.65008373 1028.51614083 318.34219755 1033.00348392 311.04138184 1037.50336456 C302.78600429 1042.59159238 294.51740594 1047.65681231 286.22888184 1052.69086456 C279.0431661 1057.05635697 271.87462342 1061.44773204 264.72888184 1065.87836456 C263.89228027 1066.39672882 263.05567871 1066.91509308 262.19372559 1067.44916534 C258.36978585 1069.81894097 254.54643074 1072.18964234 250.72497559 1074.56342316 C247.8033981 1076.37797309 244.87951238 1078.1887593 241.95437622 1079.99756622 C240.27507902 1081.03726269 238.59801673 1082.08056623 236.92102051 1083.12397003 C219.41172714 1093.94256591 219.41172714 1093.94256591 212.04138184 1092.50336456 C206.09774311 1090.13049509 200.71110221 1086.51877607 195.35388184 1083.06586456 C193.66692939 1081.9894851 191.9794091 1080.91399517 190.29138184 1079.83930206 C189.42513184 1079.28726105 188.55888184 1078.73522003 187.66638184 1078.1664505 C183.41653251 1075.47393063 179.13569015 1072.83215816 174.85388184 1070.19086456 C167.23435283 1065.48604132 159.63219102 1060.75438533 152.04138184 1056.00336456 C144.55328946 1051.31725261 137.05582876 1046.64709981 129.54138184 1042.00336456 C122.09120888 1037.39852286 114.65498451 1032.77192707 107.22888184 1028.12836456 C106.22583008 1027.50115509 105.22277832 1026.87394562 104.18933105 1026.2277298 C99.15825052 1023.08078772 94.12859634 1019.93157921 89.09997559 1016.78070831 C77.56620002 1009.55785232 65.99909262 1002.39266967 54.40124512 995.27313995 C47.33338346 990.92902964 40.30449377 986.52905444 33.30187988 982.08075714 C26.58696043 977.82518499 19.81721957 973.66108737 13.04138184 969.50336456 C4.75755464 964.42032412 -3.49330008 959.2928511 -11.69689941 954.08148956 C-18.41227439 949.82574937 -25.18237528 945.66133598 -31.95861816 941.50336456 C-40.24244536 936.42032412 -48.49330008 931.2928511 -56.69689941 926.08148956 C-63.41227608 921.82574831 -70.18243848 917.6614415 -76.95861816 913.50336456 C-86.14716207 907.86341249 -95.30356604 902.17964406 -104.39611816 896.38617706 C-107.6439773 894.32077713 -110.91790475 892.30443429 -114.20861816 890.30805206 C-115.07623779 889.77599152 -115.94385742 889.24393097 -116.83776855 888.69574738 C-118.49214405 887.68218781 -120.15245897 886.67823245 -121.81970215 885.68598175 C-122.56550537 885.2261087 -123.31130859 884.76623566 -124.07971191 884.29242706 C-124.73383057 883.89749054 -125.38794922 883.50255402 -126.06188965 883.09564972 C-129.16368094 880.49172607 -131.57328702 877.58117049 -132.32950804 873.50342973 C-132.47370161 871.12544811 -132.49155363 868.77645535 -132.46642685 866.39416695 C-132.47588248 865.02632991 -132.47588248 865.02632991 -132.48552912 863.63085979 C-132.50183647 860.56471937 -132.48960862 857.49935544 -132.4776001 854.43320465 C-132.48347349 852.21712815 -132.49109956 850.00105572 -132.50033116 847.78499067 C-132.52064366 841.68723206 -132.51602379 835.5897054 -132.50742364 829.49192834 C-132.50299658 823.59407086 -132.51730486 817.69627932 -132.5311872 811.7984409 C-132.55893693 799.73360929 -132.56811849 787.66883018 -132.56673431 775.60396957 C-132.56542434 763.65747337 -132.57235697 751.71102884 -132.59030914 739.76454544 C-132.59142053 739.021876 -132.59253192 738.27920657 -132.59367699 737.514032 C-132.59936404 733.74242149 -132.60519846 729.97081123 -132.61108962 726.19920103 C-132.65255647 699.48174628 -132.67552563 672.76430443 -132.68762207 646.04682159 C-132.69941624 620.09042648 -132.71958568 594.13405996 -132.75109863 568.17768097 C-132.75206658 567.37765616 -132.75303454 566.57763135 -132.75403182 565.75336336 C-132.76376159 557.71921852 -132.77366169 549.68507391 -132.78368658 541.65092944 C-132.80410474 525.28430862 -132.82338605 508.91768653 -132.84197998 492.55106354 C-132.84283631 491.79854521 -132.84369264 491.04602689 -132.84457492 490.27070498 C-132.9016332 440.01494002 -132.9318838 389.75915374 -132.95861816 339.50336456 C-145.82861816 339.50336456 -158.69861816 339.50336456 -171.95861816 339.50336456 Z M-111.95861816 339.50336456 C-112.64759589 430.65840216 -112.64759589 430.65840216 -113.11457729 521.81392324 C-113.16356474 535.02149389 -113.21367404 548.22905951 -113.26724201 561.43661246 C-113.27371823 563.03410447 -113.28015914 564.63159663 -113.28656429 566.22908892 C-113.38891119 591.68213717 -113.56895492 617.13390321 -113.78975146 642.58617686 C-114.01632682 668.75222084 -114.16391217 694.91755626 -114.21257793 721.08456462 C-114.21949331 724.78314099 -114.22730858 728.48171495 -114.235672 732.18028831 C-114.23729015 732.90819727 -114.2389083 733.63610623 -114.24057549 734.38607304 C-114.26890283 746.08887998 -114.38011399 757.78949151 -114.52258698 769.49140418 C-114.66416111 781.2655579 -114.71584644 793.0373508 -114.68265122 804.81232388 C-114.66728143 811.19021823 -114.69072874 817.56169039 -114.81954956 823.93844032 C-116.71944126 847.94374128 -116.71944126 847.94374128 -109.66377449 869.9346683 C-104.21798572 875.18386296 -98.23805524 877.94073706 -91.13157272 880.2985009 C-85.64861749 882.3805394 -80.93634017 885.69295974 -76.08361816 888.94086456 C-66.52605701 894.92227759 -56.92734175 900.83503201 -47.31848145 906.73358917 C-40.25061979 911.07769949 -33.2217301 915.47767468 -26.21911621 919.92597198 C-19.50419636 924.18154439 -12.73444137 928.34561742 -5.95861816 932.50336456 C2.44498066 937.66027033 10.81690406 942.86051069 19.14221191 948.14276886 C24.81458545 951.73844803 30.51489264 955.28673 36.22888184 958.81586456 C43.78379547 963.4823408 51.32506967 968.16988289 58.85388184 972.87836456 C60.35785522 973.81881622 60.35785522 973.81881622 61.89221191 974.77826691 C66.92371778 977.92542371 71.95376528 981.07489799 76.98278809 984.22602081 C88.51656365 991.4488768 100.08367105 998.61405945 111.68151855 1005.73358917 C118.74938021 1010.07769949 125.7782699 1014.47767468 132.78088379 1018.92597198 C139.49580492 1023.18154521 146.2656073 1027.34553623 153.04138184 1031.50336456 C164.6505844 1038.62912319 176.18263229 1045.86791907 187.67565918 1053.17914581 C189.4722224 1054.32162204 191.269331 1055.46324116 193.0670166 1056.6039505 C194.7680095 1057.68330694 196.46776825 1058.76461137 198.1661377 1059.84809113 C198.92160889 1060.32730011 199.67708008 1060.80650909 200.45544434 1061.30023956 C201.12527344 1061.72659698 201.79510254 1062.15295441 202.48522949 1062.59223175 C203.88466438 1063.58757585 203.88466438 1063.58757585 205.04138184 1063.50336456 C205.04138184 1021.26336456 205.04138184 979.02336456 205.04138184 935.50336456 C190.68638184 934.01836456 190.68638184 934.01836456 176.04138184 932.50336456 C141.8411575 926.72304496 105.30467767 917.01222845 76.04138184 897.50336456 C74.11718299 897.2098382 74.11718299 897.2098382 71.99812317 897.26285553 C71.17782623 897.2601062 70.3575293 897.25735687 69.51237488 897.25452423 C68.61613907 897.26171478 67.71990326 897.26890533 66.79650879 897.27631378 C65.84997437 897.27602173 64.90343994 897.27572968 63.92822266 897.27542877 C60.79527666 897.27682365 57.66256761 897.2923924 54.52966309 897.30805206 C52.35918813 897.31178163 50.18871149 897.31462887 48.01823425 897.3166275 C42.30206667 897.3242684 36.58600052 897.34392086 30.86987305 897.36603546 C25.03838473 897.38648404 19.20688004 897.39562711 13.37536621 897.40570831 C1.93066016 897.42716627 -9.51397057 897.46130776 -20.95861816 897.50336456 C-20.93863266 896.32367096 -20.91864716 895.14397736 -20.89805603 893.92853546 C-20.71471458 882.74953362 -20.58027158 871.57084119 -20.49230862 860.39067078 C-20.44556274 854.6442265 -20.38227475 848.89900666 -20.27966309 843.15326691 C-20.18105848 837.59640932 -20.12789109 832.04072079 -20.10472298 826.48305511 C-20.08823743 824.37486644 -20.05604785 822.26673361 -20.00704765 820.15904999 C-19.68244306 805.60263904 -21.78738963 796.54063939 -29.95861816 784.50336456 C-31.78145311 780.96042282 -33.3949544 777.3546591 -34.95861816 773.69086456 C-35.36813721 772.73711945 -35.77765625 771.78337433 -36.19958496 770.80072784 C-43.95451816 752.32297922 -50.01978739 733.15335214 -53.95861816 713.50336456 C-54.11024414 712.76376495 -54.26187012 712.02416534 -54.41809082 711.26215363 C-60.77259242 679.29708495 -60.27239031 645.53607259 -54.95861816 613.50336456 C-54.80973145 612.58120148 -54.66084473 611.65903839 -54.50744629 610.70893097 C-50.25814484 585.33213795 -42.15172758 552.93424433 -26.9839325 531.74471283 C-19.57414728 520.8495938 -19.91338987 510.75746434 -20.17736816 497.91742706 C-20.19231953 495.76269396 -20.20369283 493.60793336 -20.21166992 491.45316315 C-20.24197593 485.82683798 -20.32035055 480.20220845 -20.40930176 474.57654572 C-20.4916612 468.81801023 -20.52778779 463.05919632 -20.56799316 457.30023956 C-20.65336786 446.03387626 -20.78960989 434.7687623 -20.95861816 423.50336456 C-19.79446884 423.5300119 -18.63031952 423.55665924 -17.43089294 423.58411407 C-6.35731675 423.82939273 4.71569537 424.00820728 15.79139042 424.12511063 C21.48322974 424.18723928 27.17284424 424.27122774 32.86340332 424.408638 C66.67525554 426.13612741 66.67525554 426.13612741 96.85905457 412.99982452 C126.43470516 392.71928387 170.4122498 388.38912557 205.04138184 385.50336456 C205.04138184 370.32336456 205.04138184 355.14336456 205.04138184 339.50336456 C100.43138184 339.50336456 -4.17861816 339.50336456 -111.95861816 339.50336456 Z M227.04138184 339.50336456 C227.04138184 354.68336456 227.04138184 369.86336456 227.04138184 385.50336456 C231.47575684 385.89523956 235.91013184 386.28711456 240.47888184 386.69086456 C277.26387108 390.24695388 317.4991833 399.52552886 348.99973965 419.76140881 C354.82534931 423.37641608 359.27564273 424.20893475 366.0592041 424.07099152 C367.01636826 424.07172165 367.97353241 424.07245178 368.95970154 424.07320404 C372.09299317 424.0697475 375.22475929 424.03097781 378.35778809 423.99164581 C380.54210091 423.98231082 382.72642427 423.97519795 384.91075134 423.97020721 C390.6369458 423.95119165 396.36249786 423.90213737 402.08843994 423.84668732 C407.94050407 423.79537749 413.79267283 423.77266813 419.64489746 423.74750519 C431.11067322 423.69401367 442.57597394 423.60876668 454.04138184 423.50336456 C454.01917572 424.7036731 453.9969696 425.90398163 453.97409058 427.14066315 C453.77021903 438.52500654 453.62092295 449.90897343 453.52326012 461.29473686 C453.47135887 467.14663669 453.40111488 472.99704785 453.2869873 478.84809113 C453.17728128 484.50872508 453.11832295 490.16793947 453.09260941 495.82955551 C453.07431725 497.97520641 453.03860187 500.12079108 452.98408127 502.26582718 C452.62901226 516.83228493 454.72588997 526.53260182 462.88620377 538.69798756 C465.55044282 542.86180961 467.32394704 547.49628173 469.16638184 552.06586456 C469.57469238 553.06851349 469.98300293 554.07116241 470.40368652 555.10419464 C483.04610424 586.75205238 489.79397473 619.48910014 491.04138184 653.50336456 C491.0839209 654.59133331 491.12645996 655.67930206 491.17028809 656.80023956 C491.93527232 697.80339459 482.77991831 738.88909814 465.97888184 776.19086456 C465.59184082 777.05074982 465.2047998 777.91063507 464.80603027 778.79657745 C461.52680509 785.86135873 461.52680509 785.86135873 459.28125 788.83126068 C452.02787966 798.85417871 453.14956555 809.4498399 453.35778809 821.33148956 C453.37086459 823.53392708 453.38081905 825.73638514 453.38780212 827.9388504 C453.4143658 833.69981115 453.48298724 839.45951128 453.56072998 845.21997833 C453.63269235 851.11244408 453.66438388 857.00511609 453.69958496 862.89789581 C453.77436965 874.43360205 453.89364097 885.96837795 454.04138184 897.50336456 C452.86470444 897.47671722 451.68802704 897.45006989 450.47569275 897.42261505 C439.28438177 897.17736428 428.09362864 896.99853458 416.90022182 896.8816185 C411.14786111 896.8194832 405.39770092 896.73548119 399.64660645 896.59809113 C365.60286178 894.82103101 365.60286178 894.82103101 335.21556091 908.00691986 C306.06421662 928.07121686 259.67992955 932.23950979 227.04138184 935.50336456 C227.04138184 977.74336456 227.04138184 1019.98336456 227.04138184 1063.50336456 C235.62881589 1058.85573803 235.62881589 1058.85573803 243.99450684 1053.90961456 C245.01391357 1053.2790213 246.03332031 1052.64842804 247.08361816 1051.99872589 C248.14218018 1051.34025665 249.20074219 1050.68178741 250.29138184 1050.00336456 C252.59138662 1048.57893143 254.89262855 1047.15650109 257.19372559 1045.73383331 C257.76962936 1045.37738235 258.34553314 1045.0209314 258.93888855 1044.65367889 C264.55878193 1041.17726874 270.20440246 1037.7438997 275.85388184 1034.31586456 C283.10447023 1029.91239184 290.33405871 1025.47729583 297.54138184 1021.00336456 C305.7014053 1015.93804648 313.89494377 1010.93036228 322.10388184 1005.94477081 C329.43267994 1001.4905883 336.74056612 997.0032452 344.04138184 992.50336456 C352.29675873 987.41513715 360.56530245 982.34982514 368.85388184 977.31586456 C376.10427595 972.91206841 383.33405537 968.47729791 390.54138184 964.00336456 C398.7014053 958.93804648 406.89494377 953.93036228 415.10388184 948.94477081 C422.43267994 944.4905883 429.74056612 940.0032452 437.04138184 935.50336456 C445.29675873 930.41513715 453.56530245 925.34982514 461.85388184 920.31586456 C469.10427595 915.91206841 476.33405537 911.47729791 483.54138184 907.00336456 C490.7487099 902.52943023 497.97857654 898.09480889 505.22888184 893.69086456 C513.28944286 888.79336117 521.33967113 883.87949822 529.37503052 878.94077301 C531.06242617 877.90383977 532.75050394 876.86801682 534.43859863 875.83222198 C535.47411865 875.19518341 536.50963867 874.55814484 537.57653809 873.90180206 C538.48798584 873.34154327 539.39943359 872.78128448 540.33850098 872.20404816 C541.23045166 871.64282257 542.12240234 871.08159698 543.04138184 870.50336456 C544.58716146 869.73060342 544.58716146 869.73060342 546.16416895 868.94223094 C549.42449457 866.69534011 549.42449457 866.69534011 549.78657281 862.62743115 C549.81506595 861.0121434 549.81016015 859.39607021 549.77966881 857.78081894 C549.78659187 856.88643063 549.79351494 855.99204232 549.8006478 855.07055134 C549.81662269 852.0515009 549.78954035 849.03434241 549.76290894 846.01538849 C549.76552367 843.83816189 549.77077397 841.66093711 549.77844393 839.48372245 C549.79190522 833.48389044 549.76779878 827.48469707 549.73777556 821.48494649 C549.71193701 815.02142514 549.72062791 808.55794169 549.72518921 802.09438324 C549.72937801 790.89023632 549.70967591 779.68628536 549.67576218 768.48219299 C549.64027873 756.72943126 549.61717032 744.9767529 549.61064529 733.22393799 C549.61023286 732.49360819 549.60982042 731.7632784 549.60939548 731.0108174 C549.60736553 727.30194964 549.60555721 723.59308181 549.60383423 719.88421389 C549.59122657 693.60372424 549.55078802 667.32334359 549.49401855 641.04291534 C549.43892611 615.50939246 549.39651896 589.97589963 549.37097168 564.44232941 C549.36934783 562.83712526 549.3677236 561.23192112 549.366099 559.62671697 C549.35296667 546.58408488 549.34071109 533.54145197 549.3286681 520.49881883 C549.27232796 460.16689748 549.1519098 399.83526047 549.04138184 339.50336456 C442.78138184 339.50336456 336.52138184 339.50336456 227.04138184 339.50336456 Z " fill="#000000" transform="translate(384.9586181640625,66.49663543701172)"/>
<path d="M0 0 C0.85896378 -0.00095673 1.71792755 -0.00191345 2.60292053 -0.00289917 C4.41065545 -0.00357643 6.21839287 -0.00175399 8.02612305 0.00244141 C10.77333108 0.00778948 13.52037516 0.00248431 16.26757812 -0.00390625 C18.03255244 -0.00324526 19.79752665 -0.00196367 21.5625 0 C22.37420151 -0.00202423 23.18590302 -0.00404846 24.02220154 -0.00613403 C29.04839195 0.01423982 33.8714312 0.41730474 38.84765625 1.1328125 C42.49837117 9.1363029 45.36732415 17.36146182 48.16015625 25.6953125 C48.52173828 26.76652344 48.88332031 27.83773437 49.25585938 28.94140625 C49.75956055 30.46121094 49.75956055 30.46121094 50.2734375 32.01171875 C50.72843628 33.38179077 50.72843628 33.38179077 51.19262695 34.77954102 C51.84765625 37.1328125 51.84765625 37.1328125 51.84765625 40.1328125 C53.09933594 40.225625 54.35101562 40.3184375 55.640625 40.4140625 C61.41090481 41.06283884 66.68211045 42.76212997 72.16015625 44.6328125 C73.2076001 44.98811035 74.25504395 45.3434082 75.33422852 45.70947266 C89.79349362 50.72593004 103.53110323 56.76035511 116.38256836 65.12255859 C120.05060587 67.45555093 120.05060587 67.45555093 124.25390625 68.16796875 C128.22090962 66.58475204 132.06902476 64.81188187 135.91015625 62.9453125 C136.75199463 62.54328613 137.59383301 62.14125977 138.46118164 61.72705078 C142.21097007 59.92878907 145.94082008 58.10490182 149.62109375 56.16796875 C151.18730469 55.34619141 151.18730469 55.34619141 152.78515625 54.5078125 C153.68105469 54.02054688 154.57695313 53.53328125 155.5 53.03125 C158.25179272 51.97815129 159.17208793 51.96192022 161.84765625 53.1328125 C173.74489878 61.0141988 193.12977626 76.85570134 198.84765625 90.1328125 C197.58985863 94.81759732 195.50556483 99.02815224 193.30078125 103.32421875 C192.61374085 104.69423929 191.92756821 106.06469529 191.2421875 107.43554688 C190.16837463 109.57504139 189.08946691 111.71125396 187.99560547 113.84057617 C186.93503235 115.91061903 185.89755144 117.99093679 184.86328125 120.07421875 C184.5311261 120.70767715 184.19897095 121.34113556 183.85675049 121.99378967 C182.43988837 124.88961142 181.71034987 126.57109507 182.48901367 129.7565918 C183.16154175 130.93282104 183.16154175 130.93282104 183.84765625 132.1328125 C184.26926025 132.9465332 184.69086426 133.76025391 185.12524414 134.59863281 C185.6021167 135.46069336 186.07898926 136.32275391 186.5703125 137.2109375 C208.84765625 178.22287588 208.84765625 178.22287588 208.84765625 198.1328125 C210.00789307 198.40988037 211.16812988 198.68694824 212.36352539 198.97241211 C216.51942616 200.01279971 220.54769598 201.29720206 224.59375 202.69921875 C225.63862328 203.05765114 225.63862328 203.05765114 226.7046051 203.42332458 C228.15967103 203.92340481 229.61417096 204.42513478 231.06811523 204.9284668 C233.30226003 205.70122848 235.53867232 206.46714521 237.77539062 207.23242188 C239.19414913 207.7209515 240.61277397 208.20986952 242.03125 208.69921875 C242.70095322 208.92839493 243.37065643 209.15757111 244.06065369 209.39369202 C248.73250397 211.01766022 248.73250397 211.01766022 249.84765625 212.1328125 C251.00441239 220.98498387 251.006196 229.95163942 250.97802734 238.86376953 C250.97262401 240.89493133 250.97803526 242.92587571 250.984375 244.95703125 C250.96673722 262.89465055 250.96673722 262.89465055 248.84765625 267.1328125 C245.99756128 267.97709489 243.16349922 268.72440985 240.28125 269.44140625 C221.62257627 273.7108687 221.62257627 273.7108687 206.31738281 284.09863281 C203.09574696 290.65490958 202.21029659 297.6025857 201.36621094 304.79736328 C200.56566997 309.94660562 198.67683522 314.41220438 196.53515625 319.1328125 C196.17574951 319.97900146 195.81634277 320.82519043 195.44604492 321.69702148 C193.50031929 326.11694671 191.31320805 330.04467768 188.515625 333.984375 C182.74631186 341.5363617 182.74631186 341.5363617 181.10449219 350.49902344 C182.70413117 355.66757808 185.47161112 360.15019979 188.35205078 364.69628906 C190.88228498 368.8183487 192.94442404 373.15141955 195.03515625 377.5078125 C195.64955566 378.69407227 195.64955566 378.69407227 196.27636719 379.90429688 C198.96097018 385.32997128 198.96097018 385.32997128 198.48046875 388.734375 C196.13437602 392.18054948 193.42499017 395.13554548 190.53515625 398.1328125 C189.91358643 398.78636719 189.2920166 399.43992187 188.65161133 400.11328125 C186.72628644 402.12901185 184.78882305 404.13234325 182.84765625 406.1328125 C182.25855469 406.74382812 181.66945313 407.35484375 181.0625 407.984375 C165.89836612 423.66664557 165.89836612 423.66664557 160.84765625 426.1328125 C156.52537196 425.65128354 153.03663585 423.93949087 149.15625 422.04296875 C148.52912613 421.73838242 147.90200226 421.43379608 147.25587463 421.11997986 C145.26296065 420.15046713 143.2740623 419.17301659 141.28515625 418.1953125 C139.94491675 417.5417939 138.60442427 416.88879382 137.26367188 416.23632812 C127.09363455 411.28104084 127.09363455 411.28104084 124.75024414 409.86889648 C122.09735296 408.84253091 120.53981071 409.31346114 117.84765625 410.1328125 C115.73078525 411.10609616 115.73078525 411.10609616 113.6875 412.35546875 C112.9039917 412.80776855 112.1204834 413.26006836 111.31323242 413.72607422 C110.06183472 414.45334717 110.06183472 414.45334717 108.78515625 415.1953125 C95.25252984 422.84326854 76.43258013 433.1439899 60.59033203 434.29711914 C57.97866798 434.55925343 56.17403169 434.89846538 53.84765625 436.1328125 C51.46934047 439.7644642 50.33559435 443.68349617 49.09765625 447.8203125 C48.72769531 448.94759766 48.35773438 450.07488281 47.9765625 451.23632812 C46.90199157 454.52602335 45.87351374 457.82767304 44.84765625 461.1328125 C44.07495824 463.49339616 43.28831571 465.84863851 42.49511719 468.20239258 C41.88962619 470.00767815 41.30533464 471.82003528 40.72265625 473.6328125 C39.84765625 476.1328125 39.84765625 476.1328125 38.84765625 477.1328125 C33.22486058 478.01961485 27.75421989 478.28073048 22.0703125 478.265625 C21.25952744 478.26658173 20.44874237 478.26753845 19.61338806 478.26852417 C17.90998252 478.26920029 16.20657432 478.26738593 14.50317383 478.26318359 C11.92067574 478.25783429 9.33835209 478.26314441 6.75585938 478.26953125 C5.08984337 478.26887023 3.42382748 478.26758858 1.7578125 478.265625 C0.99815689 478.26764923 0.23850128 478.26967346 -0.54417419 478.27175903 C-5.81259864 478.24914265 -10.92365025 477.78482096 -16.15234375 477.1328125 C-16.57531738 475.94691528 -16.57531738 475.94691528 -17.00683594 474.73706055 C-18.0726494 471.7493349 -19.13876712 468.76171803 -20.20507812 465.77416992 C-20.66287869 464.49133452 -21.12056468 463.20845822 -21.578125 461.92553711 C-22.24317336 460.06092234 -22.90869502 458.1964764 -23.57421875 456.33203125 C-24.00669922 455.11950684 -24.43917969 453.90698242 -24.88476562 452.65771484 C-26.38000648 448.49972418 -27.91282951 444.35623126 -29.46191406 440.21801758 C-30.15234375 438.1328125 -30.15234375 438.1328125 -30.15234375 436.1328125 C-31.02632812 435.98585938 -31.9003125 435.83890625 -32.80078125 435.6875 C-54.0214898 431.8170563 -75.54216169 424.11676252 -93.30932617 411.69995117 C-95.16785975 410.40995517 -95.16785975 410.40995517 -98.15234375 409.1328125 C-102.8503386 410.3123233 -107.07588978 412.46837035 -111.37890625 414.64453125 C-112.75367146 415.32664529 -114.12867869 416.00827173 -115.50390625 416.68945312 C-117.65048034 417.75756354 -119.79502319 418.82923422 -121.93554688 419.90942383 C-124.0156845 420.95685386 -126.1027521 421.98921269 -128.19140625 423.01953125 C-128.83002594 423.34652512 -129.46864563 423.67351898 -130.12661743 424.01042175 C-134.57655571 426.18684611 -134.57655571 426.18684611 -137.45214844 425.91699219 C-149.74288445 420.24814611 -170.77566479 400.6176433 -176.15234375 388.1328125 C-174.89454613 383.44802768 -172.81025233 379.23747276 -170.60546875 374.94140625 C-169.91842835 373.57138571 -169.23225571 372.20092971 -168.546875 370.83007812 C-167.47306213 368.69058361 -166.39415441 366.55437104 -165.30029297 364.42504883 C-164.23971985 362.35500597 -163.20223894 360.27468821 -162.16796875 358.19140625 C-161.8358136 357.55794785 -161.50365845 356.92448944 -161.16143799 356.27183533 C-159.70826523 353.30180089 -159.01652681 351.66788235 -159.84399414 348.40795898 C-160.27574951 347.65716064 -160.70750488 346.9063623 -161.15234375 346.1328125 C-161.78527344 344.99070312 -162.41820312 343.84859375 -163.0703125 342.671875 C-163.82620146 341.36682735 -164.58274643 340.06215951 -165.33984375 338.7578125 C-172.13976054 326.76805538 -177.44557312 314.7534131 -182.02734375 301.7578125 C-182.42115234 300.65195801 -182.81496094 299.54610352 -183.22070312 298.40673828 C-185.336479 292.24812002 -186.72792107 286.63606318 -187.15234375 280.1328125 C-188.16035034 279.96168945 -188.16035034 279.96168945 -189.1887207 279.78710938 C-192.74550321 279.00185712 -196.13582514 277.85870282 -199.5703125 276.6640625 C-200.26876785 276.42369263 -200.96722321 276.18332275 -201.68684387 275.93566895 C-203.15560422 275.42949662 -204.6238322 274.92177721 -206.09155273 274.41259766 C-208.3417171 273.63216276 -210.59355035 272.85670704 -212.84570312 272.08203125 C-214.27483964 271.58883151 -215.70387954 271.09535168 -217.1328125 270.6015625 C-217.80676559 270.36924927 -218.48071869 270.13693604 -219.1750946 269.89758301 C-223.91943123 268.24926876 -223.91943123 268.24926876 -226.15234375 267.1328125 C-226.65912722 264.60515173 -227.01140508 262.19014663 -227.27734375 259.6328125 C-227.36081055 258.84688721 -227.44427734 258.06096191 -227.53027344 257.2512207 C-228.18801702 250.27846754 -228.36754918 243.32140241 -228.40234375 236.3203125 C-228.41612061 234.80244141 -228.41612061 234.80244141 -228.43017578 233.25390625 C-228.39974311 225.73581846 -227.46528164 218.52967727 -226.15234375 211.1328125 C-221.36527127 209.44180358 -216.57807769 207.75113812 -211.79077148 206.06079102 C-210.16215738 205.48569021 -208.53357643 204.91049552 -206.9050293 204.33520508 C-204.56437751 203.50837929 -202.22360677 202.68189106 -199.8828125 201.85546875 C-199.15458786 201.59814468 -198.42636322 201.34082062 -197.67607117 201.07569885 C-194.84084503 200.07501229 -192.00476236 199.0836187 -189.15234375 198.1328125 C-188.06049869 195.46229383 -188.06049869 195.46229383 -187.27734375 192.1328125 C-186.93015227 190.84362474 -186.58247546 189.55456762 -186.234375 188.265625 C-185.69710237 186.22039749 -185.16315317 184.17433118 -184.63037109 182.12792969 C-180.18484673 165.28994175 -173.06183629 149.91449707 -164.33911133 134.86743164 C-163.93716553 134.17125732 -163.53521973 133.47508301 -163.12109375 132.7578125 C-162.76466797 132.15195312 -162.40824219 131.54609375 -162.04101562 130.921875 C-161.02998293 128.88647732 -160.39632081 127.40574777 -160.15234375 125.1328125 C-161.05423948 122.40772334 -161.05423948 122.40772334 -162.5390625 119.5546875 C-163.06564453 118.47574219 -163.59222656 117.39679688 -164.13476562 116.28515625 C-164.69744141 115.16238281 -165.26011719 114.03960938 -165.83984375 112.8828125 C-166.38318359 111.77550781 -166.92652344 110.66820312 -167.48632812 109.52734375 C-170.39809981 103.55836662 -170.39809981 103.55836662 -173.51025391 97.69335938 C-174.671875 95.5859375 -174.671875 95.5859375 -176.15234375 92.1328125 C-170.91589079 78.68953021 -150.9834923 58.64486158 -138.15234375 52.1328125 C-133.6752055 52.58022638 -129.99530186 54.54613685 -126.05859375 56.58203125 C-124.68524852 57.27218663 -123.31153937 57.96161824 -121.9375 58.65039062 C-119.78735797 59.73580123 -117.64044017 60.82644788 -115.49951172 61.92993164 C-113.42278545 62.99682777 -111.33580006 64.0408421 -109.24609375 65.08203125 C-108.29120056 65.58496956 -108.29120056 65.58496956 -107.3170166 66.09806824 C-104.2773177 67.59362057 -102.67720478 68.26959999 -99.34106445 67.40014648 C-97.15029463 66.131626 -94.97632139 64.86635423 -92.83984375 63.5078125 C-54.97267243 40.48502047 -54.97267243 40.48502047 -37.76733398 41.23706055 C-34.53435041 41.1750464 -32.90857136 40.8787081 -30.15234375 39.1328125 C-26.57237812 33.59583114 -24.99102691 26.81902466 -23.08984375 20.5703125 C-22.52149397 18.80407369 -21.94926844 17.03907703 -21.37304688 15.27539062 C-20.32412919 12.06108948 -19.30288903 8.84016614 -18.30053711 5.61108398 C-17.15234375 2.1328125 -17.15234375 2.1328125 -16.15234375 1.1328125 C-10.74602842 0.13090738 -5.48715212 -0.01364989 0 0 Z " fill="#FDFDFD" transform="translate(589.15234375,487.8671875)"/>
<path d="M0 0 C8.79486404 5.91915918 15.21069232 13.9729501 17.9296875 24.3046875 C19.62631835 37.67612845 18.91097983 50.88613628 10.9453125 62.09765625 C6.16064018 67.84095972 0.72336003 72.14543714 -6.0703125 75.3046875 C-6.7303125 75.3046875 -7.3903125 75.3046875 -8.0703125 75.3046875 C-8.0703125 84.8746875 -8.0703125 94.4446875 -8.0703125 104.3046875 C-5.4303125 104.6346875 -2.7903125 104.9646875 -0.0703125 105.3046875 C1.76729903 105.63594116 3.60170661 105.98635815 5.4296875 106.3671875 C6.285625 106.54378906 7.1415625 106.72039062 8.0234375 106.90234375 C8.6525 107.03511719 9.2815625 107.16789063 9.9296875 107.3046875 C10.4453125 106.3353125 10.9609375 105.3659375 11.4921875 104.3671875 C13.9296875 101.3046875 13.9296875 101.3046875 17.4921875 100.2421875 C20.9296875 100.3046875 20.9296875 100.3046875 22.57592773 101.51538086 C24.23066076 103.70249328 24.57656252 105.29636572 25.02734375 107.99609375 C25.188396 108.93291992 25.34944824 109.86974609 25.51538086 110.83496094 C25.75140015 112.33591309 25.75140015 112.33591309 25.9921875 113.8671875 C26.15920166 114.88973633 26.32621582 115.91228516 26.49829102 116.96582031 C26.99530696 120.07610013 27.46755665 123.18904722 27.9296875 126.3046875 C28.06858398 127.22685059 28.20748047 128.14901367 28.35058594 129.09912109 C28.71376996 131.58180275 29.04811084 134.06599305 29.3671875 136.5546875 C29.47232666 137.2979126 29.57746582 138.0411377 29.68579102 138.80688477 C30.26293851 143.79923992 30.26293851 143.79923992 28.64453125 146.25390625 C25.85447953 147.96352792 24.12604685 147.88003218 20.9296875 147.3046875 C18.26999589 144.71319311 16.42102402 142.04726158 14.37890625 138.9609375 C8.41523768 130.07712777 2.25433882 124.63305968 -7.0703125 119.3046875 C-7.4003125 133.4946875 -7.7303125 147.6846875 -8.0703125 162.3046875 C-4.4403125 163.2946875 -0.8103125 164.2846875 2.9296875 165.3046875 C18.61772534 171.42187528 32.64041831 179.28402751 39.9296875 195.3046875 C43.68947202 204.27334016 43.75408064 217.89441308 40.3046875 226.9921875 C39.19140625 229.2109375 39.19140625 229.2109375 37.9296875 231.3046875 C37.48238281 232.078125 37.03507813 232.8515625 36.57421875 233.6484375 C29.00933566 245.81715024 15.7511719 256.10575553 1.9296875 260.3046875 C-0.39839384 260.67291681 -2.73153444 261.01198844 -5.0703125 261.3046875 C-4.61522164 280.43963674 -4.61522164 280.43963674 3.9296875 296.3046875 C23.16056954 303.22398749 44.16613734 295.55209895 61.71582031 287.40429688 C66.20136082 285.1763663 70.3871202 282.5367066 74.55859375 279.7734375 C76.9296875 278.3046875 76.9296875 278.3046875 78.9296875 278.3046875 C75.3085507 274.57039018 71.50002197 271.18679627 67.50390625 267.85546875 C66.98441406 267.34371094 66.46492187 266.83195312 65.9296875 266.3046875 C65.9296875 265.6446875 65.9296875 264.9846875 65.9296875 264.3046875 C67.12722656 263.82 68.32476563 263.3353125 69.55859375 262.8359375 C84.11005266 256.87658267 98.07931347 250.89623059 109.9296875 240.3046875 C110.55101562 239.799375 111.17234375 239.2940625 111.8125 238.7734375 C118.04651273 233.29421555 121.30330815 225.62338037 124.9296875 218.3046875 C127.16294901 220.53794901 127.64139727 221.94975398 128.62109375 224.91796875 C129.07838867 226.2956543 129.07838867 226.2956543 129.54492188 227.70117188 C129.85751953 228.66345703 130.17011719 229.62574219 130.4921875 230.6171875 C130.96688477 232.04321289 130.96688477 232.04321289 131.45117188 233.49804688 C137.85651916 252.95887907 135.75847486 271.90101808 126.9296875 290.3046875 C123.8062313 296.13953443 120.3418243 301.37347578 115.9296875 306.3046875 C110.71483089 305.47078025 107.68055923 301.74298658 103.9296875 298.3046875 C98.37196805 301.33228906 92.81735113 304.36514862 87.2734375 307.41796875 C67.56672476 318.23334168 47.72607704 328.64991535 25.96875 334.71875 C15.74601393 337.59651538 8.55187245 340.86747375 0.53613281 347.91650391 C-2.39125711 350.44616031 -5.45975228 352.79825224 -8.5078125 355.1796875 C-9.07540283 355.63174561 -9.64299316 356.08380371 -10.2277832 356.54956055 C-13.73251695 359.32982028 -17.3165871 361.87014463 -21.0703125 364.3046875 C-21.7303125 362.9846875 -22.3903125 361.6646875 -23.0703125 360.3046875 C-23.7303125 360.3046875 -24.3903125 360.3046875 -25.0703125 360.3046875 C-25.7303125 361.6246875 -26.3903125 362.9446875 -27.0703125 364.3046875 C-33.32077306 359.63577012 -39.52395365 354.90763299 -45.71484375 350.16015625 C-47.13672461 349.07100071 -48.5621828 347.98649916 -49.99121094 346.90673828 C-51.34065494 345.8669248 -52.66881253 344.79865495 -53.96972656 343.69873047 C-59.44737174 339.20074648 -65.06443996 337.36787746 -71.8203125 335.4296875 C-100.26336772 326.76063501 -125.61409008 313.55361505 -151.0703125 298.3046875 C-152.36346311 299.26101749 -153.65478103 300.21982601 -154.9453125 301.1796875 C-155.66460937 301.71335937 -156.38390625 302.24703125 -157.125 302.796875 C-159.15283882 304.30341912 -159.15283882 304.30341912 -161.0703125 306.3046875 C-162.0603125 306.3046875 -163.0503125 306.3046875 -164.0703125 306.3046875 C-177.22163199 292.40186404 -183.74100368 273.36623037 -183.54516602 254.43652344 C-183.0802117 241.6856988 -178.9541039 229.993762 -174.0703125 218.3046875 C-171.44516179 219.61726285 -171.03143233 221.32516324 -169.86401367 223.91381836 C-166.44605227 231.46218193 -162.53135675 236.96542722 -156.0703125 242.3046875 C-155.39097656 242.87058594 -154.71164062 243.43648437 -154.01171875 244.01953125 C-148.29475528 248.35056418 -141.95122951 251.63767843 -135.6328125 254.9921875 C-134.76301758 255.45608887 -133.89322266 255.91999023 -132.99707031 256.39794922 C-126.85625264 259.58782028 -120.62313981 262.08844033 -114.0703125 264.3046875 C-115.37560493 268.22056478 -117.34017956 269.34052423 -120.5703125 271.8671875 C-124.37657327 274.62144069 -124.37657327 274.62144069 -127.0703125 278.3046875 C-126.4 278.54574219 -125.7296875 278.78679687 -125.0390625 279.03515625 C-122.06620651 280.30644335 -119.38754131 281.79584664 -116.60351562 283.42700195 C-97.65277154 294.52028694 -77.43519064 300.93665934 -55.41796875 297.78125 C-50.6272355 295.66818446 -48.30281915 293.02556515 -46.0703125 288.3046875 C-44.98581275 283.83094927 -44.55789053 279.38727089 -44.1953125 274.8046875 C-44.07929687 273.60070312 -43.96328125 272.39671875 -43.84375 271.15625 C-43.56287361 268.20704795 -43.30577054 265.25780352 -43.0703125 262.3046875 C-44.34519531 262.20027344 -45.62007812 262.09585937 -46.93359375 261.98828125 C-52.25642732 261.39546616 -57.16375017 259.97522989 -62.2578125 258.3671875 C-63.55235352 257.96983398 -63.55235352 257.96983398 -64.87304688 257.56445312 C-69.29181064 256.20197279 -73.69057745 254.78849299 -78.0703125 253.3046875 C-78.48023438 253.94277344 -78.89015625 254.58085938 -79.3125 255.23828125 C-79.85132813 256.06457031 -80.39015625 256.89085937 -80.9453125 257.7421875 C-81.47898437 258.56589844 -82.01265625 259.38960937 -82.5625 260.23828125 C-84.0703125 262.3046875 -84.0703125 262.3046875 -86.0703125 263.3046875 C-88.06991262 263.3446795 -90.07078492 263.34815549 -92.0703125 263.3046875 C-95.35476798 256.2481683 -95.95131693 249.09773819 -96.57836914 241.42602539 C-96.75550898 239.27022151 -96.95144496 237.11677941 -97.15039062 234.96289062 C-98.81773115 216.22307731 -98.81773115 216.22307731 -98.0703125 207.3046875 C-96.0703125 205.3046875 -96.0703125 205.3046875 -93.8203125 204.7421875 C-89.37965865 205.65050306 -87.5384124 208.65978739 -85.0703125 212.3046875 C-84.15305504 214.00161381 -83.2585342 215.71095784 -82.3828125 217.4296875 C-75.22912755 230.9732525 -63.52468505 242.73258205 -49.0703125 248.3046875 C-46.7603125 248.9646875 -44.4503125 249.6246875 -42.0703125 250.3046875 C-41.4103125 232.1546875 -40.7503125 214.0046875 -40.0703125 195.3046875 C-43.3703125 194.6446875 -46.6703125 193.9846875 -50.0703125 193.3046875 C-52.75142095 192.44714607 -55.33188327 191.57329576 -57.9453125 190.5546875 C-58.62875732 190.29010742 -59.31220215 190.02552734 -60.01635742 189.75292969 C-76.27386265 183.34644288 -88.31459806 175.55917883 -96.0703125 159.3046875 C-99.49848893 151.1068743 -99.35767523 140.69218709 -96.10546875 132.41796875 C-89.60959645 119.15658417 -79.18320596 110.22302363 -65.4453125 105.0546875 C-63.65902188 104.45509344 -61.86766218 103.87026804 -60.0703125 103.3046875 C-59.39355469 103.0778125 -58.71679688 102.8509375 -58.01953125 102.6171875 C-51.75474856 100.7494262 -47.11505408 101.3046875 -40.0703125 101.3046875 C-40.0703125 92.7246875 -40.0703125 84.1446875 -40.0703125 75.3046875 C-43.0403125 74.3146875 -43.0403125 74.3146875 -46.0703125 73.3046875 C-56.3204626 67.28871156 -62.36791827 58.73757301 -65.60083008 47.45288086 C-66.48816279 43.39274537 -66.33965265 39.25765565 -66.3828125 35.1171875 C-66.42631836 33.7549707 -66.42631836 33.7549707 -66.47070312 32.36523438 C-66.53194483 25.78410701 -65.2210332 21.06305283 -62.0703125 15.3046875 C-61.60109375 14.43457031 -61.131875 13.56445312 -60.6484375 12.66796875 C-47.69695114 -7.33064989 -20.19845421 -11.15283604 0 0 Z " fill="#040404" transform="translate(625.0703125,543.6953125)"/>
<path d="M0 0 C0.86625 0.78375 1.7325 1.5675 2.625 2.375 C13.24415675 11.3980911 24.39744597 18.14063072 37 24 C35.61811547 27.21043882 34.07578097 29.04936365 31.375 31.25 C30.42753906 32.03117188 30.42753906 32.03117188 29.4609375 32.828125 C28.97882813 33.21484375 28.49671875 33.6015625 28 34 C43.12946354 50.32487794 71.96906282 64.09070669 94.21582031 65.10058594 C100.15375173 65.29001975 106.06388924 65.20162739 112 65 C113.20140625 64.97808594 114.4028125 64.95617187 115.640625 64.93359375 C120.45035849 64.54511528 123.04837789 63.87594083 126.65234375 60.55859375 C136.96064087 48.32868674 137.13781359 35.37565767 138 20 C143.94 20 149.88 20 156 20 C156.10957031 21.38832031 156.21914063 22.77664063 156.33203125 24.20703125 C157.64193203 43.98820975 157.64193203 43.98820975 167.375 60.8046875 C171.95734241 64.6369441 176.17436816 64.88946904 182 65 C183.03253906 65.03891357 183.03253906 65.03891357 184.0859375 65.07861328 C215.78982392 66.2396986 241.04044384 53.46194955 266 35 C263.86860874 32.24467582 261.98872625 29.99103224 259.25 27.8125 C258.5075 27.214375 257.765 26.61625 257 26 C257 25.34 257 24.68 257 24 C258.02738281 23.5153125 259.05476563 23.030625 260.11328125 22.53125 C272.53663785 16.56539268 282.87346092 9.40142887 293 0 C293.66 0.33 294.32 0.66 295 1 C295.05883728 4.47909371 295.09387399 7.95805674 295.125 11.4375 C295.14175781 12.41138672 295.15851563 13.38527344 295.17578125 14.38867188 C295.23323744 22.97837177 293.95945281 30.3067812 290.625 38.25 C290.02558594 39.71179688 290.02558594 39.71179688 289.4140625 41.203125 C287.92080392 44.15664198 286.14963196 46.49362061 284 49 C283.55269531 48.55527344 283.10539062 48.11054687 282.64453125 47.65234375 C282.03996094 47.08644531 281.43539063 46.52054688 280.8125 45.9375 C279.92498047 45.08478516 279.92498047 45.08478516 279.01953125 44.21484375 C277.05877483 42.78607375 277.05877483 42.78607375 274.6640625 43.078125 C271.33336387 44.23068347 268.51760963 45.93337202 265.5625 47.8125 C242.85476856 61.78407443 218.38833655 75.0919047 192.5546875 82.26171875 C191.80485596 82.47078857 191.05502441 82.6798584 190.2824707 82.89526367 C188.86628936 83.28104187 187.44574529 83.65136849 186.02026367 84.0012207 C176.6289262 86.50873437 169.25080906 93.2133454 161.75 99.125 C160.97398437 99.73214844 160.19796875 100.33929687 159.3984375 100.96484375 C155.58133206 103.95469255 151.77882045 106.96182836 148 110 C145.13727091 108.65961958 142.7068948 107.13760321 140.20703125 105.20703125 C139.49877197 104.66232178 138.7905127 104.1176123 138.06079102 103.55639648 C136.94788696 102.69316772 136.94788696 102.69316772 135.8125 101.8125 C134.66575806 100.93283569 134.66575806 100.93283569 133.49584961 100.03540039 C129.62974364 97.06429116 125.82609626 94.03772857 122.0625 90.9375 C114.6098045 85.18948533 105.37345895 83.16763422 96.52075195 80.41723633 C82.0598521 75.87366859 68.37351984 70.11774531 55 63 C54.13262207 62.53899902 53.26524414 62.07799805 52.37158203 61.60302734 C42.1692535 56.15645787 32.0680308 50.68241747 22.4609375 44.23046875 C20.13351387 42.80188609 20.13351387 42.80188609 17.8359375 43.171875 C15.19746392 44.361995 13.18195478 46.12109449 11 48 C8.30385662 46.98679962 7.16417936 46.26371019 5.62109375 43.78515625 C5.23050781 42.88667969 4.83992188 41.98820313 4.4375 41.0625 C4.04433594 40.18722656 3.65117187 39.31195312 3.24609375 38.41015625 C-0.04128165 29.41367123 -1.44766219 21.46161612 -1.25 11.875 C-1.24484375 10.83601562 -1.2396875 9.79703125 -1.234375 8.7265625 C-1.15509259 1.15509259 -1.15509259 1.15509259 0 0 Z " fill="#FBFBFB" transform="translate(454,787)"/>
<path d="M0 0 C9.92121875 7.7952433 16.46662521 18.57441172 18.625 31.0625 C20.11380525 49.70276453 20.17563113 68.99503108 7.625 84.0625 C2.28707489 90.24325539 -5.16941126 95.46306806 -13.49047852 96.2668457 C-15.89291371 96.367127 -18.2830743 96.38450366 -20.6875 96.375 C-21.8930957 96.39916992 -21.8930957 96.39916992 -23.12304688 96.42382812 C-33.78794789 96.43240809 -41.36500322 92.71813376 -49.03125 85.50390625 C-53.53785766 80.70988738 -56.0610597 75.16736378 -58.375 69.0625 C-58.85839844 67.80953125 -58.85839844 67.80953125 -59.3515625 66.53125 C-63.57924719 53.09748555 -63.54270959 34.20145394 -58.375 21.0625 C-58.04628906 20.21171875 -57.71757813 19.3609375 -57.37890625 18.484375 C-52.25237536 6.91863748 -44.06328458 -0.35352732 -32.375 -4.9375 C-21.26300186 -8.55224638 -9.77834125 -5.6134922 0 0 Z " fill="#FBFBFB" transform="translate(989.375,275.9375)"/>
<path d="M0 0 C50.85454545 0 50.85454545 0 58.5625 7.4375 C64.40638615 14.91143154 63.64705297 23.99801748 63 33 C62.06712936 39.25300419 58.65153079 42.73291284 53.9375 46.65234375 C52 48 52 48 49 49 C50.36125 49.61875 50.36125 49.61875 51.75 50.25 C55.89248771 52.48057031 58.31795458 54.24780496 60.046875 58.68945312 C61.05703649 62.19810829 61.5741585 65.53089406 62 69.15625 C62.08121094 69.82160767 62.16242188 70.48696533 62.24609375 71.17248535 C62.58995953 73.99135816 62.91932266 76.81187901 63.25 79.63232422 C63.49495527 81.70344014 63.7473213 83.77356444 64 85.84375 C64.2165625 87.68743164 64.2165625 87.68743164 64.4375 89.56835938 C64.98722996 93.49037983 64.98722996 93.49037983 67 99 C60.4 99 53.8 99 47 99 C45.56241874 93.24967497 44.69381932 88.5251474 44.5 82.75 C44.12144533 72.2387327 44.12144533 72.2387327 42 62 C38.81579155 59.87719437 37.79462745 59.71980463 34.11328125 59.5859375 C33.26805908 59.55032715 32.42283691 59.5147168 31.55200195 59.47802734 C30.48296631 59.44402832 29.41393066 59.4100293 28.3125 59.375 C24.909375 59.25125 21.50625 59.1275 18 59 C18 72.2 18 85.4 18 99 C12.06 99 6.12 99 0 99 C0 66.33 0 33.66 0 0 Z " fill="#FBFBFB" transform="translate(1022,272)"/>
<path d="M0 0 C8.58 0 17.16 0 26 0 C36.4193397 24.84611774 46.2232627 49.89156102 56 75 C56.33 50.25 56.66 25.5 57 0 C62.61 0 68.22 0 74 0 C74 32.67 74 65.34 74 99 C65.42 99 56.84 99 48 99 C46.85144531 96.050625 45.70289063 93.10125 44.51953125 90.0625 C43.35478581 87.07628718 42.18926584 84.09037771 41.02368164 81.10449219 C40.23870077 79.09243479 39.45447372 77.08008306 38.67114258 75.06738281 C31.62604941 56.96838778 24.31138746 38.99726145 17 21 C16.67 46.74 16.34 72.48 16 99 C10.72 99 5.44 99 0 99 C0 66.33 0 33.66 0 0 Z " fill="#F9F9F9" transform="translate(676,272)"/>
<path d="M0 0 C0.89589844 0.00322266 1.79179687 0.00644531 2.71484375 0.00976562 C4.12056641 0.02233398 4.12056641 0.02233398 5.5546875 0.03515625 C6.49957031 0.03966797 7.44445312 0.04417969 8.41796875 0.04882812 C10.7552352 0.0606325 13.09246919 0.07856826 15.4296875 0.09765625 C15.4296875 4.71765625 15.4296875 9.33765625 15.4296875 14.09765625 C12.46744792 14.29296875 9.50520833 14.48828125 6.54296875 14.68359375 C3.45000224 15.09495442 1.15469945 15.57557751 -1.5703125 17.09765625 C-3.0778122 20.33326537 -2.73763242 24.07825073 -2.7578125 27.59765625 C-2.77908203 29.28375 -2.77908203 29.28375 -2.80078125 31.00390625 C-2.57486677 34.03652101 -2.33374452 35.64999036 -0.5703125 38.09765625 C2.85793141 40.58073011 6.55485797 40.49349905 10.6796875 40.72265625 C11.94296875 40.79742187 13.20625 40.8721875 14.5078125 40.94921875 C15.47203125 40.99820313 16.43625 41.0471875 17.4296875 41.09765625 C17.4296875 36.80765625 17.4296875 32.51765625 17.4296875 28.09765625 C23.0396875 28.09765625 28.6496875 28.09765625 34.4296875 28.09765625 C34.4296875 32.38765625 34.4296875 36.67765625 34.4296875 41.09765625 C37.7296875 41.09765625 41.0296875 41.09765625 44.4296875 41.09765625 C44.4296875 45.71765625 44.4296875 50.33765625 44.4296875 55.09765625 C41.1296875 55.09765625 37.8296875 55.09765625 34.4296875 55.09765625 C34.4296875 69.61765625 34.4296875 84.13765625 34.4296875 99.09765625 C24.2821875 99.22140625 24.2821875 99.22140625 13.9296875 99.34765625 C11.80982422 99.38407227 9.68996094 99.42048828 7.50585938 99.45800781 C5.80339568 99.46970316 4.1009207 99.47989298 2.3984375 99.48828125 C1.0995459 99.51897705 1.0995459 99.51897705 -0.22558594 99.55029297 C-7.73639385 99.55455563 -12.98381759 97.6266735 -18.3828125 92.34765625 C-22.8103955 85.76953293 -24.08066469 79.85972591 -24.0078125 72.09765625 C-24.0377832 70.96457031 -24.0377832 70.96457031 -24.06835938 69.80859375 C-24.06302488 63.59924311 -22.4979871 58.11980306 -18.08740234 53.56689453 C-15.71029248 51.54396301 -13.16566611 49.82789199 -10.5703125 48.09765625 C-11.04082031 47.75734375 -11.51132812 47.41703125 -11.99609375 47.06640625 C-12.93001953 46.339375 -12.93001953 46.339375 -13.8828125 45.59765625 C-14.49769531 45.13359375 -15.11257813 44.66953125 -15.74609375 44.19140625 C-21.56631078 37.5112428 -21.2412112 28.76768065 -20.97265625 20.3984375 C-20.60187419 15.04462178 -19.35219557 11.01832402 -15.5703125 7.09765625 C-10.7292117 3.19138871 -6.30699508 -0.03991769 0 0 Z " fill="#FAFAFA" transform="translate(506.5703125,271.90234375)"/>
<path d="M0 0 C7.26 0 14.52 0 22 0 C25.36478443 9.9020799 28.48174591 19.83169919 31.38378906 29.87792969 C31.97478322 31.91315998 32.57505152 33.94534779 33.1796875 35.9765625 C35.08147733 42.37292345 36.94506051 48.77702355 38.73046875 55.20703125 C39.03355957 56.29822266 39.33665039 57.38941406 39.64892578 58.51367188 C40.24008115 60.64827673 40.82848201 62.78364716 41.41357422 64.91992188 C43.12348946 71.09985957 45.00739226 77.19034662 47.07495117 83.26025391 C51 94.88519398 51 94.88519398 51 99 C45.06 99 39.12 99 33 99 C30.22084887 91.77420705 28.5542661 85.7713305 27 78 C15.78 78 4.56 78 -7 78 C-7.33 79.98 -7.66 81.96 -8 84 C-8.63078731 86.26032118 -9.29827913 88.51068487 -10 90.75 C-10.350625 91.87921875 -10.70125 93.0084375 -11.0625 94.171875 C-12 97 -12 97 -13 99 C-18.61 99 -24.22 99 -30 99 C-27.4914063 88.36262916 -24.30397681 77.98861364 -21.0546875 67.55859375 C-20.47816732 65.69971665 -19.9019291 63.84075209 -19.32595825 61.98170471 C-17.82011577 57.12412149 -16.31030825 52.26777964 -14.79968262 47.41168213 C-13.25841352 42.45428928 -11.72126721 37.49561842 -10.18359375 32.53710938 C-7.94190526 25.31115722 -5.69921981 18.08551605 -3.45263672 10.86108398 C-3.10042053 9.72734848 -3.10042053 9.72734848 -2.74108887 8.57070923 C-1.84961795 5.70565922 -0.94888447 2.84665342 0 0 Z " fill="#F9F9F9" transform="translate(616,272)"/>
<path d="M0 0 C7.26 0 14.52 0 22 0 C25.94368985 12.29503306 29.83043999 24.58713251 33.41601562 36.99072266 C33.99393882 38.97914568 34.58114062 40.96456712 35.171875 42.94921875 C37.07595915 49.35478504 38.94252451 55.76789034 40.73046875 62.20703125 C41.03355957 63.29822266 41.33665039 64.38941406 41.64892578 65.51367188 C42.24008115 67.64827673 42.82848201 69.78364716 43.41357422 71.91992188 C45.12329518 78.09915743 47.02030296 84.16876999 49.14819336 90.2175293 C50 93 50 93 51 99 C44.73 99 38.46 99 32 99 C31.360625 96.463125 30.72125 93.92625 30.0625 91.3125 C29.86277588 90.52270752 29.66305176 89.73291504 29.45727539 88.91918945 C29.29735107 88.28198975 29.13742676 87.64479004 28.97265625 86.98828125 C28.81031494 86.34415283 28.64797363 85.70002441 28.48071289 85.03637695 C27.93004578 82.70366268 27.47005688 80.35028438 27 78 C15.78 78 4.56 78 -7 78 C-7.66 80.97 -8.32 83.94 -9 87 C-10.23402777 91.03986463 -11.62247603 95.00518048 -13 99 C-18.61 99 -24.22 99 -30 99 C-28.3949489 92.04477858 -26.49553678 85.30872696 -24.1875 78.5625 C-21.91862489 71.92551019 -19.88537682 65.25577882 -18 58.5 C-15.95871933 51.19488903 -13.7128522 44.00355346 -11.2565918 36.82836914 C-8.9661045 30.06501284 -7.00188435 23.22121763 -5.09179688 16.34179688 C-4.86169922 15.51615234 -4.63160156 14.69050781 -4.39453125 13.83984375 C-4.09832886 12.76271118 -4.09832886 12.76271118 -3.79614258 11.66381836 C-2.62532266 7.74636477 -1.29295251 3.87885753 0 0 Z " fill="#FAFAFA" transform="translate(310,272)"/>
<path d="M0 0 C5.94 0 11.88 0 18 0 C18 13.2 18 26.4 18 40 C28.56 40 39.12 40 50 40 C50 26.8 50 13.6 50 0 C55.94 0 61.88 0 68 0 C68 32.67 68 65.34 68 99 C62.06 99 56.12 99 50 99 C50 84.48 50 69.96 50 55 C39.44 55 28.88 55 18 55 C18 69.52 18 84.04 18 99 C12.06 99 6.12 99 0 99 C0 66.33 0 33.66 0 0 Z " fill="#FBFBFB" transform="translate(847,272)"/>
<path d="M0 0 C5.94 0 11.88 0 18 0 C18 13.2 18 26.4 18 40 C28.56 40 39.12 40 50 40 C50 26.8 50 13.6 50 0 C55.94 0 61.88 0 68 0 C68 32.67 68 65.34 68 99 C62.06 99 56.12 99 50 99 C50 84.48 50 69.96 50 55 C39.44 55 28.88 55 18 55 C18 69.52 18 84.04 18 99 C12.06 99 6.12 99 0 99 C0 66.33 0 33.66 0 0 Z " fill="#FBFBFB" transform="translate(204,272)"/>
<path d="M0 0 C5.94 0 11.88 0 18 0 C18 13.2 18 26.4 18 40 C28.56 40 39.12 40 50 40 C50 26.8 50 13.6 50 0 C55.61 0 61.22 0 67 0 C67 32.67 67 65.34 67 99 C61.39 99 55.78 99 50 99 C50 84.48 50 69.96 50 55 C39.44 55 28.88 55 18 55 C18 69.52 18 84.04 18 99 C12.06 99 6.12 99 0 99 C0 66.33 0 33.66 0 0 Z " fill="#FDFDFD" transform="translate(370,272)"/>
<path d="M0 0 C4.98287974 5.45743971 7.92688391 11.0156544 7.9375 18.5 C7.834375 19.94375 7.73125 21.3875 7.625 22.875 C2.675 22.875 -2.275 22.875 -7.375 22.875 C-7.7875 21.4725 -8.2 20.07 -8.625 18.625 C-9.89687829 14.80936512 -11.07623393 12.34907455 -14.375 9.875 C-18.99028736 8.33657088 -23.5552042 8.34651362 -28.375 8.875 C-31.37697464 10.67618478 -32.82666366 11.77832732 -34.375 14.875 C-34.64874623 16.91451356 -34.64874623 16.91451356 -34.6875 19.1875 C-34.72488281 19.94675781 -34.76226562 20.70601563 -34.80078125 21.48828125 C-34.18828277 24.92164426 -32.82856979 26.40961527 -30.375 28.875 C-27.95650617 30.2971425 -25.6562191 31.51668121 -23.125 32.6875 C-21.69528738 33.37755213 -20.26560066 34.06765791 -18.8359375 34.7578125 C-17.34903985 35.4637134 -15.86206018 36.16944155 -14.375 36.875 C-11.49302095 38.25687527 -8.6200772 39.65610825 -5.75 41.0625 C-4.77498535 41.52523315 -4.77498535 41.52523315 -3.78027344 41.99731445 C2.83336618 45.23291837 7.77135579 48.81598537 10.625 55.875 C13.26557242 64.29879794 12.47292754 73.91690397 8.75 81.828125 C4.63586976 89.3135564 -1.40835228 93.14254693 -9.4375 95.6875 C-20.50903287 98.37849757 -32.88362223 98.35560252 -42.84375 92.3984375 C-48.11675464 88.64912576 -51.18906692 84.9497201 -53.375 78.875 C-53.7875 77.740625 -54.2 76.60625 -54.625 75.4375 C-55.375 71.875 -55.375 71.875 -55.375 62.875 C-49.435 62.875 -43.495 62.875 -37.375 62.875 C-37.271875 64.256875 -37.16875 65.63875 -37.0625 67.0625 C-36.63758814 71.03667561 -35.68606342 73.5591264 -33.375 76.875 C-33.375 77.535 -33.375 78.195 -33.375 78.875 C-29.42717867 80.72369991 -26.22190758 81.17226551 -21.875 81.1875 C-20.21984375 81.21263672 -20.21984375 81.21263672 -18.53125 81.23828125 C-14.04571907 80.72200108 -11.42317196 79.14003512 -8.5625 75.6875 C-6.98340833 71.94754603 -6.68119478 68.87458306 -7.375 64.875 C-11.59510155 56.8184425 -21.99801996 53.53417825 -30 50.375 C-39.21963932 46.72242708 -45.83856491 42.67140457 -51.44921875 34.265625 C-54.07188908 27.49315983 -53.34711832 17.69268798 -51.5703125 10.71484375 C-48.17156586 3.1321228 -41.87081993 -1.95665641 -34.25 -5.0625 C-22.30311095 -8.40428715 -10.37018862 -6.52937802 0 0 Z " fill="#FAFAFA" transform="translate(179.375,276.125)"/>
<path d="M0 0 C5.49454451 4.46994707 8.77405788 9.33576688 10.625 16.1875 C11.59481362 27.59972534 10.88892581 36.66620171 4.5 46.4375 C-0.8468089 51.55183895 -8.72196854 57.1875 -16.375 57.1875 C-16.375 68.0775 -16.375 78.9675 -16.375 90.1875 C-19.675 89.8575 -22.975 89.5275 -26.375 89.1875 C-26.375 78.6275 -26.375 68.0675 -26.375 57.1875 C-28.355 56.8575 -30.335 56.5275 -32.375 56.1875 C-40.70826662 52.50663182 -47.54447016 47.63481796 -51.2890625 39.10546875 C-54.70694184 29.47471529 -55.15788393 18.97803225 -50.8125 9.625 C-46.14118214 1.49385092 -40.18504405 -2.77723747 -31.375 -5.8125 C-20.05795612 -8.51561558 -9.568657 -6.69626466 0 0 Z " fill="#F9F9F9" transform="translate(622.375,554.8125)"/>
<path d="M0 0 C4.93330346 4.49559816 8.05503932 9.71409114 9.55078125 16.23828125 C9.55078125 18.54828125 9.55078125 20.85828125 9.55078125 23.23828125 C4.27078125 23.23828125 -1.00921875 23.23828125 -6.44921875 23.23828125 C-6.84109375 22.02140625 -7.23296875 20.80453125 -7.63671875 19.55078125 C-9.15177745 15.50105088 -11.07494374 13.02205813 -14.44921875 10.23828125 C-19.97516174 8.39630025 -26.83958924 8.07440256 -32.26171875 10.48828125 C-37.50516851 13.97549121 -40.18786898 21.21762615 -42.01147461 27.03051758 C-43.03936373 32.21467895 -42.63402862 37.6611871 -42.63671875 42.92578125 C-42.65508789 44.78879883 -42.65508789 44.78879883 -42.67382812 46.68945312 C-42.69101487 57.49991715 -41.63383347 67.07649827 -35.44921875 76.23828125 C-31.92120151 79.73929836 -28.25465798 80.47843236 -23.38671875 80.67578125 C-18.38777585 80.46306028 -14.79279447 79.16967028 -10.89453125 75.95703125 C-9.05540644 73.76996391 -8.51081182 71.79745584 -7.76171875 69.05078125 C-7.32859375 67.46265625 -6.89546875 65.87453125 -6.44921875 64.23828125 C-0.83921875 64.23828125 4.77078125 64.23828125 10.55078125 64.23828125 C9.98726595 72.97276846 8.05009276 81.91950617 1.55078125 88.23828125 C-7.69587418 95.5521441 -18.9134502 97.42497514 -30.44921875 96.23828125 C-40.63119609 94.33865861 -47.74030732 89.33556951 -54.0390625 81.1796875 C-55.44408195 78.92055288 -56.46415643 76.71030075 -57.44921875 74.23828125 C-57.83980469 73.26375 -58.23039063 72.28921875 -58.6328125 71.28515625 C-64.26902355 54.20100096 -64.56743151 29.31102728 -56.38671875 12.98828125 C-51.39805186 3.2900991 -44.19876148 -2.47169532 -33.94921875 -5.94921875 C-22.03507486 -8.58167721 -10.03952181 -7.22141043 0 0 Z " fill="#FAFAFA" transform="translate(824.44921875,276.76171875)"/>
<path d="M0 0 C6.44799901 3.05811139 9.54948517 10.066223 12.0234375 16.40625 C13.57662436 22.2399977 13.15840675 28.40499872 13.12109375 34.390625 C13.13269531 36.2459082 13.13269531 36.2459082 13.14453125 38.13867188 C13.12355376 47.95089291 12.36807363 59.36507202 5.41796875 67.0625 C0.33296376 71.42841337 -3.84056504 73.05281423 -10.46484375 72.88671875 C-16.11454077 71.96719328 -20.2846728 68.85512662 -23.73046875 64.3671875 C-31.48237507 51.44734363 -31.1421761 32.55348497 -28.4765625 18.1484375 C-26.45647373 10.77901495 -22.83571036 4.45557057 -16.2734375 0.26953125 C-11.26413939 -1.6374693 -5.14282494 -1.32109265 0 0 Z " fill="#020202" transform="translate(976.12890625,285.546875)"/>
<path d="M0 0 C5.41092807 3.53791451 8.80161886 7.95679055 11 14 C12.19931852 21.23762655 11.13191099 27.88845477 7 34 C2.38770101 39.03597573 -2.13254802 42.5295673 -9.05078125 43.37109375 C-16.43958529 43.52152449 -21.42609935 43.05333135 -27 38 C-32.4864193 32.72223647 -34.97037837 27.92756325 -35.4375 20.25 C-35.26589759 13.54741191 -32.88632398 7.81649356 -28.0625 3.109375 C-19.05548632 -3.91882507 -10.36574213 -4.75899314 0 0 Z " fill="#090909" transform="translate(613,560)"/>
<path d="M0 0 C3.87987121 2.16971439 5.96960968 4.22849679 7.8125 8.375 C8.61219598 13.48972222 8.4322431 17.19962515 6 21.8125 C0.70890169 28.01064374 0.70890169 28.01064374 -4.640625 28.68359375 C-9.67238321 28.91550439 -13.2414698 28.97871427 -17.25 25.6875 C-21.09579343 21.73130102 -22.26109301 18.39936 -22.5625 12.9375 C-22.43347457 8.36848167 -21.31473471 5.82297673 -18.1875 2.375 C-12.41734153 -2.20970512 -6.84365328 -3.01627681 0 0 Z " fill="#FBFBFB" transform="translate(608.1875,566.625)"/>
<path d="M0 0 C0 13.53 0 27.06 0 41 C-9.74897675 37.75034108 -15.96342946 35.23168711 -22 27 C-23.85827924 23.28344153 -23.43817875 19.0562833 -23 15 C-20.03261758 8.82784457 -14.57810311 4.00356419 -8.375 1.125 C-5 0 -5 0 0 0 Z " fill="#FCFCFC" transform="translate(585,656)"/>
<path d="M0 0 C2.660625 -0.061875 5.32125 -0.12375 8.0625 -0.1875 C8.8862915 -0.21481201 9.71008301 -0.24212402 10.55883789 -0.27026367 C16.57340913 -0.33724429 21.31724999 0.53669784 25.91015625 4.75390625 C27.43093272 7.88812299 27.43379521 10.46611421 27.4375 13.9375 C27.46650391 15.74541016 27.46650391 15.74541016 27.49609375 17.58984375 C26.90500435 21.65300158 25.99237154 23.21674593 23 26 C18.12137512 28.36153726 13.41862392 28.24072442 8.125 28.125 C5.44375 28.08375 2.7625 28.0425 0 28 C0 18.76 0 9.52 0 0 Z " fill="#020202" transform="translate(1040,287)"/>
<path d="M0 0 C1.81358154 0.47505678 3.62584179 0.95516042 5.4375 1.4375 C6.95150391 1.83775391 6.95150391 1.83775391 8.49609375 2.24609375 C11 3 11 3 12 4 C12.15934441 5.82421875 12.25153736 7.65435951 12.31640625 9.484375 C12.35838135 10.6384082 12.40035645 11.79244141 12.44360352 12.98144531 C12.48283936 14.22506836 12.5220752 15.46869141 12.5625 16.75 C12.6049585 18.00651367 12.64741699 19.26302734 12.69116211 20.55761719 C13.03219599 31.37463538 13.10539974 42.17896032 13 53 C9.85069107 54.04976964 7.61185544 54.10131595 4.3125 54.0625 C3.31863281 54.05347656 2.32476563 54.04445313 1.30078125 54.03515625 C0.16189453 54.01775391 0.16189453 54.01775391 -1 54 C-1.11055186 35.96814155 -1.06832245 18.00886408 0 0 Z " fill="#FAFAFA" transform="translate(595,742)"/>
<path d="M0 0 C0 9.57 0 19.14 0 29 C-2.536875 29.103125 -5.07375 29.20625 -7.6875 29.3125 C-8.47729248 29.35802002 -9.26708496 29.40354004 -10.08081055 29.45043945 C-14.21517496 29.53146442 -15.60379217 29.32083936 -18.95703125 26.60546875 C-22.12105324 22.57028201 -22.18571645 20.30339931 -22.25 15.1875 C-22.27578125 13.96417969 -22.3015625 12.74085938 -22.328125 11.48046875 C-21.97097121 7.69208744 -21.36675501 5.94815352 -19 3 C-14 0 -14 0 0 0 Z " fill="#030303" transform="translate(523,327)"/>
<path d="M0 0 C2 1 2 1 2.82202148 3.44921875 C3.08571533 4.51785156 3.34940918 5.58648437 3.62109375 6.6875 C3.91693359 7.86183594 4.21277344 9.03617187 4.51757812 10.24609375 C4.82115234 11.48488281 5.12472656 12.72367187 5.4375 14 C8.05607168 24.68470699 8.05607168 24.68470699 11.46899414 35.1328125 C12 37 12 37 12 41 C4.41 41 -3.18 41 -11 41 C-9.8751713 32.00137037 -9.8751713 32.00137037 -8.4765625 27.5390625 C-8.1775 26.57226562 -7.8784375 25.60546875 -7.5703125 24.609375 C-7.25835938 23.62453125 -6.94640625 22.6396875 -6.625 21.625 C-6.01286423 19.65890292 -5.4008838 17.69275746 -4.7890625 15.7265625 C-4.49161133 14.77813477 -4.19416016 13.82970703 -3.88769531 12.85253906 C-2.55765341 8.57855404 -1.27549924 4.29052976 0 0 Z " fill="#070707" transform="translate(626,292)"/>
<path d="M0 0 C2 1 2 1 2.62255859 2.74316406 C2.79609863 3.49307617 2.96963867 4.24298828 3.1484375 5.015625 C3.34727539 5.84876221 3.54611328 6.68189941 3.75097656 7.5402832 C3.9569043 8.43448975 4.16283203 9.32869629 4.375 10.25 C6.06475613 17.33325122 7.90237849 24.26411244 10.203125 31.17578125 C11 34 11 34 12 41 C4.41 41 -3.18 41 -11 41 C-9.8751713 32.00137037 -9.8751713 32.00137037 -8.4765625 27.5390625 C-8.1775 26.57226562 -7.8784375 25.60546875 -7.5703125 24.609375 C-7.25835937 23.62453125 -6.94640625 22.6396875 -6.625 21.625 C-6.01286423 19.65890292 -5.4008838 17.69275746 -4.7890625 15.7265625 C-4.49161133 14.77813477 -4.19416016 13.82970703 -3.88769531 12.85253906 C-2.55765341 8.57855404 -1.27549924 4.29052976 0 0 Z " fill="#070707" transform="translate(320,292)"/>
<path d="M0 0 C8 0 8 0 10 1 C10 15.85 10 30.7 10 46 C6.7 45.67 3.4 45.34 0 45 C0 30.15 0 15.3 0 0 Z " fill="#FDFDFD" transform="translate(596,656)"/>
<path d="M0 0 C4.29278809 2.27895045 7.54873536 4.0104797 10.375 8.0625 C10.85710938 8.73410156 11.33921875 9.40570312 11.8359375 10.09765625 C14.33420302 14.18039219 14.68220162 18.35005102 14 23 C11.64338792 29.85848088 8.07474772 34.98282812 2 39 C1.67 39 1.34 39 1 39 C-0.15136362 30.81353269 -0.11414983 22.68490646 -0.0625 14.4375 C-0.05747366 13.03320473 -0.05291276 11.6289077 -0.04882812 10.22460938 C-0.03711593 6.81636097 -0.02071372 3.4082036 0 0 Z " fill="#F6F6F6" transform="translate(618,751)"/>
</svg>
